<?xml version="1.0" standalone="no"?>
<!DOCTYPE svg PUBLIC "-//W3C//DTD SVG 1.1//EN" "http://www.w3.org/Graphics/SVG/1.1/DTD/svg11.dtd" >
<svg xmlns="http://www.w3.org/2000/svg">
<metadata>Generated by IcoMoon</metadata>
<defs>
<font id="icomoon" horiz-adv-x="1024">
<font-face units-per-em="1024" ascent="960" descent="-64" />
<missing-glyph horiz-adv-x="1024" />
<glyph unicode="&#x20;" horiz-adv-x="512" d="" />
<glyph unicode="&#xe900;" glyph-name="info-circle-o" d="M514.092-20.794c255.422-0.032 463.484 211.89 463.491 472.080 0.003 254.487-210.476 464.384-465.859 464.572-257.021 0.191-467.887-211.148-467.483-468.525 0.407-258.236 211.041-468.094 469.851-468.127zM510.752 958.312c270.982 2.453 510.811-216.557 510.727-512.023-0.081-285.31-230.591-508.973-508.33-510.283-281.907-1.329-513.328 230.228-513.147 511.060 0.174 282.096 228.83 510.97 510.75 511.245zM444.632 528.842h133.903c0.26-5.507 0.755-11.156 0.758-16.809 0.048-79.083 0.146-158.169-0.003-237.252-0.114-60.221-34.066-95.178-93.096-96.147-13.59-0.223-27.186-0.032-41.562-0.032v350.24zM565.894 650.919c0.1-37.534-29.48-67.849-66.536-68.18-37.253-0.334-68.456 31.042-68.199 68.579 0.251 36.329 30.269 65.961 67.025 66.154 38.115 0.203 67.61-28.789 67.71-66.554z" />
<glyph unicode="&#xe901;" glyph-name="info-circle" d="M514.092-20.794c-258.81 0.032-469.444 209.891-469.851 468.127-0.404 257.377 210.463 468.717 467.483 468.525 255.383-0.188 465.862-210.085 465.859-464.572-0.006-260.19-208.069-472.113-463.491-472.080zM444.632 528.842v-350.24c14.376 0 27.972-0.19 41.562 0.032 59.029 0.968 92.982 35.926 93.096 96.147 0.149 79.083 0.051 158.169 0.003 237.252-0.003 5.652-0.498 11.302-0.758 16.809h-133.903zM565.894 650.919c-0.1 37.764-29.596 66.756-67.71 66.554-36.755-0.193-66.774-29.825-67.025-66.154-0.257-37.537 30.946-68.913 68.199-68.579 37.056 0.331 66.636 30.646 66.536 68.18z" />
<glyph unicode="&#xe902;" glyph-name="user-check" d="M476.162 277.333c185.88 0 336.526 152.798 336.526 341.333s-150.646 341.333-336.526 341.333c-185.88 0-336.526-152.798-336.526-341.333s150.646-341.333 336.526-341.333v0zM474.571 902.31c152.765 0 277.041-126.051 277.041-280.999s-124.276-280.999-277.041-280.999c-152.765 0-277.041 126.051-277.041 280.999s124.276 280.999 277.041 280.999v0zM766.143 209.067h-538.441c-74.339 0-134.61-61.133-134.61-136.533v-136.533h807.662v136.533c0 75.401-60.272 136.533-134.61 136.533v0zM651.636 743.484c-80.605-82.817-161.633-166.070-242.29-248.939-43.162 44.337-86.84 89.204-130.074 133.615 12.373 12.698 15.739 15.86 28.464 28.92 29.889-30.727 70.817-71.87 101.609-101.44 68.952 70.849 145.426 148.401 213.333 218.178 13.059-13.627 16.56-17.398 28.957-30.334z" />
<glyph unicode="&#xe903;" glyph-name="no-pin" d="M544.88 302.112c-1.831-26.246-3.641-52.086-5.431-77.925-6.145-88.698-12.262-177.398-18.499-266.091-0.236-3.352-1.328-6.712-2.508-9.875-2.006-5.357-5.926-7.429-11.738-5.883-5.435 1.448-8.034 4.259-8.587 10.385-10.45 115.749-21.154 231.479-31.812 347.216-0.067 0.731-0.258 1.454-0.499 2.787-13.651 1.117-27.426 1.961-41.15 3.417-44.66 4.735-88.338 13.773-128.644 35.359-21.856 11.706-41.285 26.326-51.119 50.529-7.563 18.618-6.391 36.852 0.775 54.815 8.497 21.304 22.468 39.189 37.708 55.614 30.429 32.79 62.16 64.368 93.145 96.648 2.225 2.318 3.899 6.255 3.886 9.474-0.158 43.543-0.577 87.093-1.267 130.644-0.043 2.772-2.121 6.843-4.439 8.151-38.334 21.685-60.728 56.177-77.806 95.012-2.005 4.559-3.676 9.262-5.381 13.944-4.463 12.258 0.916 26.235 12.174 32.755 27.755 16.066 58.692 21.886 90.079 25.822 73.164 9.174 146.478 7.688 219.649-4.416 26.174-4.33 52.309-10.394 75.433-24.789 14.49-9.017 19.556-19.182 14.053-35.64-9.245-27.673-21.33-53.779-41.205-75.548-10.83-11.861-23.036-21.881-37.594-28.839-4.484-2.144-6.086-4.986-5.986-10.185 0.816-43.055 1.173-86.111 2.065-129.166 0.076-3.61 2.216-8.051 4.822-10.706 24.705-25.162 50.561-49.245 74.368-75.211 18.351-20.013 36.089-41.102 50.805-63.807 23.683-36.544 21.78-74.866-13.985-104.33-22.852-18.83-49.951-28.575-78.119-36.121-33.203-8.894-67.297-12.288-101.69-13.68-3.666-0.15-7.337-0.233-11.503-0.361z" />
<glyph unicode="&#xe904;" glyph-name="check-list" horiz-adv-x="1485" d="M380.961-60.074c-17.887 0.079-35.774 0.098-53.662 0.098l-274.268-0.033c-37.632 0.013-52.992 15.091-52.999 52.040-0.039 109.345-0.046 218.69 0 328.028 0.013 33.628 15.406 49.31 48.443 49.362l11.573 0.013c28.167 0.046 56.34 0.085 84.506 0.085 46.835 0 85.15-0.118 120.583-0.381 10.463-0.079 25.219-3.512 35.249-12.925 10.148-9.531 13.332-29.834 6.669-42.594-5.986-11.461-19.804-20.802-32.86-22.219-6.827-0.742-14.238-1.090-23.322-1.090-4.483 0-8.973 0.085-13.463 0.164-4.254 0.079-8.507 0.158-12.747 0.158l-145.841-0.007v-270.474h271.938c1.057 20.539 15.307 35.249 36.024 36.871 1.168 0.092 2.317 0.138 3.433 0.138 20.375 0 35.978-14.467 37.927-35.184 1.536-16.24 1.516-31.376-0.053-45.003-0.998-8.684-7.326-37.048-46.743-37.048h-0.387zM292.296 77.401c-8.651 0-17.401 2.96-26.007 8.809-23.040 15.649-46.211 31.114-69.383 46.579-13.161 8.783-26.322 17.566-39.457 26.388-11.52 7.726-18.412 17.113-20.48 27.884-1.293 6.722-1.188 17.145 6.663 28.619 7.575 11.067 18.616 17.165 31.094 17.165 8.671 0 17.559-2.928 26.414-8.697 23.086-15.051 45.581-30.096 69.396-46.034l11.835-7.903 131.938 190.608c6.42 9.341 12.839 18.681 19.41 27.911 9.393 13.194 20.526 19.883 33.103 19.883 7.673 0 15.13-2.586 22.167-7.7 18.832-13.68 22.292-36.221 8.606-56.084-62.759-91.11-118.876-172.242-171.559-248.031-11.139-16.030-24.497-19.397-33.739-19.397zM380.961 491.311c-17.887 0.079-35.774 0.098-53.662 0.098l-274.268-0.033c-37.632 0.013-52.992 15.091-52.999 52.040-0.039 109.345-0.046 218.69 0 328.028 0.013 33.628 15.406 49.31 48.443 49.362l11.573 0.013c28.167 0.046 56.34 0.085 84.506 0.085 46.835 0 85.15-0.118 120.583-0.381 10.463-0.079 25.219-3.512 35.249-12.925 10.148-9.531 13.332-29.834 6.669-42.594-5.986-11.461-19.804-20.802-32.86-22.219-6.827-0.742-14.238-1.090-23.322-1.090-4.483 0-8.973 0.085-13.463 0.164-4.254 0.079-8.507 0.158-12.747 0.158l-145.841-0.007v-270.474h271.938c1.057 20.539 15.307 35.249 36.024 36.871 1.168 0.092 2.317 0.138 3.433 0.138 20.375 0 35.978-14.467 37.927-35.184 1.536-16.24 1.516-31.376-0.053-45.003-0.998-8.684-7.326-37.048-46.743-37.048h-0.387zM292.296 628.785c-8.651 0-17.401 2.96-26.007 8.809-23.040 15.649-46.211 31.114-69.383 46.579-13.161 8.783-26.322 17.566-39.457 26.388-11.52 7.726-18.412 17.113-20.48 27.884-1.293 6.722-1.188 17.145 6.663 28.619 7.575 11.067 18.616 17.165 31.094 17.165 8.671 0 17.559-2.928 26.414-8.697 23.086-15.051 45.581-30.096 69.396-46.034l11.835-7.903 131.938 190.608c6.42 9.341 12.839 18.681 19.41 27.911 9.393 13.194 20.526 19.883 33.103 19.883 7.673 0 15.13-2.586 22.167-7.7 18.832-13.68 22.292-36.221 8.606-56.084-62.759-91.11-118.876-172.242-171.559-248.031-11.139-16.030-24.497-19.397-33.739-19.397zM1407.504 681.223h-754.872c-36.103 0-65.641 29.538-65.641 65.641s29.538 65.641 65.641 65.641h754.872c36.103 0 65.641-29.538 65.641-65.641s-29.538-65.641-65.641-65.641zM1407.504 156.094h-754.872c-36.103 0-65.641 29.538-65.641 65.641s29.538 65.641 65.641 65.641h754.872c36.103 0 65.641-29.538 65.641-65.641s-29.538-65.641-65.641-65.641z" />
<glyph unicode="&#xe905;" glyph-name="pin" d="M354.15 226.853c-24.817-21.58-49.256-42.819-73.677-64.077-83.83-72.968-167.637-145.962-251.544-218.843-3.171-2.755-7.106-4.759-10.946-6.512-6.508-2.961-11.805-1.329-15.574 5.176-3.524 6.084-3.337 10.865 1.589 16.769 93.072 111.546 185.902 223.298 278.78 335.016 0.587 0.706 1.057 1.512 2.023 2.905-11.078 13.053-22.508 25.975-33.351 39.392-35.289 43.66-65.906 90.254-82.453 144.959-8.971 29.664-13.222 59.76-0.521 89.845 9.771 23.142 26.924 38.221 49.135 47.766 26.34 11.319 54.498 14.78 82.486 15.827 55.878 2.087 111.837 1.952 167.755 3.096 4.016 0.083 8.975 2.083 11.808 4.939 38.347 38.627 76.47 77.49 114.355 116.594 2.412 2.488 4.174 7.923 3.282 11.128-14.716 53.050-4.023 103.33 15.207 152.751 2.257 5.802 4.937 11.436 7.569 17.080 6.89 14.78 23.999 22.38 39.712 18.191 38.732-10.332 71.221-32.532 102.443-56.796 72.777-56.559 136.265-122.674 190.241-198.047 19.307-26.962 37.048-55.422 44.763-88.584 4.838-20.777 0.33-34.239-19.080-43.922-32.632-16.288-66.387-28.681-103.196-30.355-20.056-0.912-39.701 1.021-58.719 7.739-5.858 2.068-9.786 0.972-14.293-3.712-37.334-38.777-75.075-77.149-112.343-115.993-3.124-3.258-5.157-9.075-5.201-13.725-0.404-44.076 1.164-88.216-0.745-132.21-1.468-33.909-4.43-68.227-11.493-101.303-11.368-53.234-46.922-85.424-104.576-79.855-36.842 3.554-69.408 18.893-100.975 37.122-37.209 21.486-70.344 48.621-101.974 77.79-3.373 3.108-6.692 6.279-10.487 9.848z" />
<glyph unicode="&#xe906;" glyph-name="eraser-half" horiz-adv-x="1229" d="M817.628-64c-128.819 0.046-257.675 0.073-386.494 0.073-127.692 0-255.342-0.023-383.034-0.069-31.23 0-47.381 12.772-48.077 37.955-0.33 11.838 2.965 21.393 9.794 28.414 11.215 11.526 27.329 11.526 37.994 11.526h1.031c45.011-0.078 90.027-0.096 135.726-0.096l100.39 0.014c-14.304 14.45-28.626 28.886-42.953 43.317-27.843 28.056-56.639 57.066-84.816 85.773-51.226 52.19-50.91 114.411 0.843 166.44 27.779 27.928 55.869 55.851 83.033 82.853 11.884 11.815 48.155 47.923 48.155 47.923l364.335-359.933-75.256-66.369 116.362-0.032c41.084 0 82.153 0.032 123.237 0.151l0.912 0.005c30.968 0 46.991-12.511 47.633-37.19 0.376-14.573-5.271-23.51-10.074-28.437-10.578-10.857-25.487-12.319-38.673-12.319h-0.069zM1079.356 600.187l-357.441-352.738-249.664 246.38 354.745 350.078c21.684 21.399 56.845 21.399 78.533 0l173.826-171.54c20.2-19.934 20.2-52.246 0-72.18zM1164.825 718.326l-206.519 203.802c-47.774 47.145-125.225 47.145-172.994 0l-437.985-432.219 365.624-360.81 451.874 445.929c40.099 39.571 40.099 103.726 0 143.297z" />
<glyph unicode="&#xe907;" glyph-name="service" horiz-adv-x="1382" d="M268.963 144.813c1.202-0.787 1.794-1.374 2.5-1.603 156.119-51.335 312.229-102.698 468.392-153.918 40.67-13.341 80.118-9.261 117.558 10.926 69.939 37.703 139.582 75.964 209.339 114.006 83.71 45.643 167.525 91.099 251.049 137.085 21.675 11.938 26.979 32.564 15.593 53.663-10.804 20.035-27.557 24.72-50.515 14.061-98.726-45.829-197.338-91.92-296.316-137.199-11.935-5.458-25.854-9.166-38.886-9.256-106.921-0.73-213.847-0.449-320.773-0.262-3.616 0.005-8.758 1.145-10.566 3.65-6.797 9.414-6.559 19.987-2.404 30.646 3.516 9.023 11.305 7.324 18.245 7.329 98.182 0.062 196.36 0.038 294.542 0.062 4.761 0.005 9.554 0.010 14.277 0.515 25.978 2.791 45.502 25.76 44.195 51.793-1.398 27.764-22.491 46.874-52.557 46.94-71.155 0.157-142.305 0.353-213.456-0.262-10.885-0.095-16.023 3.779-21.060 12.692-40.879 72.3-102.423 109.43-186.19 108.987-76.717-0.406-153.434-0.086-230.151-0.086h-12.817v-289.767zM268.247 479.966c6.354 0 11.047-0.005 15.736 0 81.482 0.033 163.022 1.98 244.432-0.415 84.912-2.491 152.766-39.397 198.64-112.384 5.858-9.323 11.849-11.508 21.771-11.446 60.418 0.363 120.835 0.234 181.253 0.167 61.658-0.072 101.264-39.936 101.044-102.779 4.675 1.932 9.006 3.531 13.175 5.468 74.542 34.635 149.007 69.437 223.616 103.929 52.972 24.491 114.954-12.859 115.779-71.107 0.51-35.842-16.209-65.324-47.734-82.596-146.336-80.163-293.326-159.124-439.843-238.953-28.081-15.297-56.029-29.744-88.613-32.736-28.453-2.605-56.358-0.911-83.586 8.016-147.19 48.257-294.361 96.586-441.536 144.881-4.064 1.331-8.162 2.534-14.019 4.342 0-15.011 0.219-28.447-0.052-41.868-0.386-19.095-2.738-21.447-21.351-21.461-72.343-0.067-144.686-0.086-217.024 0.005-25.186 0.033-29.932 4.957-29.932 30.026-0.005 145.912-0.005 291.829 0.005 437.741 0 20.526 5.476 26.715 25.887 26.781 74.723 0.239 149.451 0.167 224.179 0.038 14.243-0.024 17.42-3.273 18.098-17.597 0.41-8.703 0.076-17.444 0.076-28.051zM682.667 802.585c0.067 37.513 14.081 70.053 35.49 101.277 44.902 65.471 141.555 71.203 202.207 30.027 8.064-5.478 13.833-6.162 23.068-0.632 59.117 35.387 139.768 32.172 192.872-19.867 54.567-53.467 62.726-132.44 18.589-193.569-17.145-23.752-39.419-44.057-60.326-64.994-45.829-45.891-92.28-91.174-138.458-136.726-17.762-17.524-27.336-17.566-44.988-0.42-59.872 58.158-119.597 116.468-179.784 174.301-31.619 30.376-47.612 66.998-48.668 110.603z" />
<glyph unicode="&#xe908;" glyph-name="inform-realtime" d="M939.592 489.993h83.621c-44.222-76.588-87.428-151.424-131.405-227.595-43.856 75.93-87.044 150.707-131.101 226.984h80.172c-4.63 130.556-109.268 305.971-313.026 339.313-199.168 32.592-387.858-103.658-424.539-299.059-13.839-73.721-6.868-145.653 22.173-214.952 29.147-69.559 75.312-125.575 137.955-167.556 62.369-41.797 131.774-61.557 207.159-62.775 0-32.358 0-63.898 0.011-95.437-175.993-6.963-406.718 117.749-460.314 373.815-54.916 262.349 115.818 508.69 369.532 558.475 138.141 27.11 264.748-3.862 376.335-89.384 111.824-85.709 170.394-201.45 183.428-341.829zM497.075 218.73h254.764v48.208h-254.764zM496.819 142.285h218.244v48.19h-218.244zM496.83 295.409h183.856v47.92h-183.856zM496.79 657.247h167.355v48.121h-167.355zM496.936 727.084h82.962v48.227h-82.962zM496.775 585.289h60.84v48.187h-60.84zM496.839 407.059v-33.097h108.884v47.905h-99.661c-1.613-5.8-4.86-10.906-9.223-14.808zM477.615 461.22v313.962c-161.777 2.564-315.933-130.589-315.97-316.328-0.040-181.691 149.848-318.051 315.97-316.27v256.614c-0.49-0.022-0.976-0.073-1.47-0.073-17.17 0-31.086 13.915-31.086 31.086 0 2.655 0.369 5.222 0.995 7.684-1.777 0.651-3.423 1.726-4.707 3.288l-145.43 177.452c-3.825 4.667-3.138 11.615 1.529 15.44l3.811 3.123c4.67 3.825 11.615 3.138 15.44-1.532l145.434-177.452c0.055-0.066 0.088-0.146 0.143-0.216 4.18 2.092 8.88 3.299 13.872 3.299 0.494 0 0.98-0.055 1.47-0.077zM624.805 526.883c1.913-2.794 2.531-6.093 2.041-9.212h62.354v48.216h-192.475v-48.216h91.988l18.297 12.537c5.811 3.979 13.817 2.483 17.796-3.324zM715.001 495.722h-113.031l-69.789-47.813h182.821zM496.538 495.722v-41.198l60.134 41.198z" />
<glyph unicode="&#xe909;" glyph-name="smile-mouth" d="M511.68 907.015c-254.475-0.332-459.147-205.132-459.071-459.359 0.075-254.107 205.549-459.284 459.532-458.867 253.753 0.417 458.451 205.265 458.499 458.841 0.049 254.382-205.093 459.718-458.96 459.386zM523.605 959.602c287.877-10.253 509.026-244.953 499.583-530.193-9.3-280.966-247.83-503.019-529.674-493.089-282.952 9.965-504.65 248.562-493.080 532.835 11.521 283.076 248.415 497.088 523.171 490.447zM192.337 393.206c21.148-145.669 149.796-276.236 322.172-267.862 164.996 8.020 275.131 143.076 290.129 267.862h-612.302zM498.079 70.744c-175.289 0.009-326.262 129.789-358.508 308.37-2.214 12.259-3.501 24.723-4.683 37.146-1.647 17.249 10.35 31.064 27.026 31.688 2.561 0.096 5.127 0.032 7.688 0.032 219.607 0 439.213 0.005 658.824 0 26.192 0 36.696-11.745 33.256-38.852-20.441-161.122-106.194-267.375-253.517-320.72-35.356-12.805-72.477-17.886-110.087-17.663zM781.473 596.497c0.16-52.72-41.757-94.739-94.356-94.602-51.802 0.132-94.042 42.264-94.274 94.033-0.237 52.283 42.295 94.807 94.611 94.597 52.066-0.2 93.864-42.005 94.019-94.028zM242.526 596.178c-0.005 52.717 42.145 94.75 94.61 94.345 51.945-0.401 93.949-42.524 94.022-94.281 0.068-52.335-42.524-94.7-94.86-94.345-52.104 0.351-93.767 42.238-93.771 94.281z" />
<glyph unicode="&#xe90a;" glyph-name="editor" d="M347.434 865.016c-90.378-1.593-180.784-0.277-271.175-0.277h-37.34c-8.020 0-14.539-6.5-14.539-14.523v-868.195c0-15.861 12.856-28.716 28.716-28.716h875.29c3.766 0 7.018 2.956 7.043 6.725v0.059c0.062 107.339-0.031 214.682 0.265 322.021 0.028 10.584-4.463 13.007-13.922 12.88-28.242-0.382-56.508-0.657-84.735 0.108-12.495 0.342-15.559-4.201-15.46-16.144 0.533-64.707-0.157-129.426 0.57-194.13 0.17-14.825-4.219-19.168-19.094-19.137-215.708 0.435-431.416 0.419-647.124 0.025-14.363-0.028-19.51 3.424-19.476 18.73 0.459 216.22 0.432 432.443 0.040 648.662-0.028 14.246 4.411 18.36 18.4 18.228 65.222-0.626 130.452-0.043 195.677-0.515 12.917-0.096 16.588 4.109 14.893 20.188v81.347c0 0 1.125 13.001-18.031 12.665zM674.678 802.704c55.785-55.916 111.16-111.418 167.644-168.033-2.755-2.96-6.323-7.044-10.146-10.867-111.733-111.745-223.411-223.542-335.468-334.96-6.076-6.043-14.891-11.089-23.22-12.829-64.68-13.513-129.552-26.096-197.433-39.578 3.454 17.397 6.56 33.116 9.69 48.831 10.116 50.747 20.089 101.521 30.562 152.194 1.162 5.615 4.043 11.77 8.033 15.774 114.821 115.185 229.885 230.13 344.936 345.085 1.772 1.771 3.904 3.179 5.401 4.383zM823.712 957.12c57.274-57.271 115.763-115.756 173.164-173.154-35.434-35.304-71.766-71.499-107.060-106.663-56.776 56.776-115.294 115.291-173.135 173.128 34.744 34.633 71.337 71.109 107.031 106.689z" />
<glyph unicode="&#xe90b;" glyph-name="save-release" horiz-adv-x="1280" d="M1259.221 279.092c0 174.996-141.892 316.898-316.898 316.898-175.008 0-316.899-141.902-316.899-316.898 0-175.006 141.892-316.898 316.899-316.898s316.898 141.892 316.898 316.898zM648.060 279.092c0 162.258 132.006 294.263 294.263 294.263s294.261-132.006 294.261-294.263-132.006-294.261-294.261-294.261c-162.258 0-294.263 132.004-294.263 294.261zM1062.127 268.715l32.019 32.017-151.823 151.817-151.823-151.817 32.019-32.017 97.168 97.174v-262.25h45.272v262.25zM991.851-62.104c39.128-0.177-78.258-0.047-117.39-0.047-120.278-0.002-240.559 0-360.839 0-158.126 0-316.257-0.004-474.385 0.002-27.135 0.002-39.213 12.011-39.217 39.315-0.026 313.692-0.024 627.382-0.004 941.072 0.002 27.758 12.064 39.686 39.861 39.69 55.811 0.008 111.62 0.024 167.431-0.008 19.928-0.012 26.61-6.714 26.61-26.488 0.004-110.336-0.002-220.673 0.006-331.011 0-28.986 11.899-40.883 40.844-40.883 153.639-0.002 307.277-0.004 460.914 0.002 27.791 0 40.266 12.604 40.268 40.685 0.008 110.979 0 221.958 0.008 332.936 0.002 18.969 5.747 24.765 24.495 24.769 38.169 0.008 76.34-0.167 114.505 0.106 11.347 0.081 20.439-3.768 28.338-11.718 23.057-23.21 46.161-46.377 69.516-69.284 8.558-8.394 12.711-18.021 12.514-30.005-0.303-18.279-0.075-36.565-0.075-54.848 0-62.949-0.002-125.899-0.002-188.848-26.538 6.749-54.319 10.348-82.926 10.348-131.758 0-246.053-76.118-301.276-186.679-154.298 0.006-308.595 0.010-462.891 0-27.575-0.002-40.494-12.996-40.498-40.726-0.022-127.648-0.010-255.3-0.010-382.948v-10.724h625.114c51.998-32.931 113.587-52.027 179.562-52.027 0 0 37.664-2.626 49.527-2.679zM553.687 607.915h141.697v297.182h-141.697z" />
<glyph unicode="&#xe90c;" glyph-name="close-circle" d="M512 960c282.752 0 512-229.248 512-512s-229.248-512-512-512c-282.734 0-512 229.248-512 512s229.266 512 512 512zM512.053 382.316c54.927-54.989 109.489-109.613 163.184-163.369 22.069 22.107 43.435 43.508 65.816 65.927-53.934 53.981-108.448 108.543-164.133 164.277 54.121 54.107 108.169 108.14 161.863 161.819-21.384 21.407-42.774 42.82-64.684 64.752-53.735-53.8-107.766-107.897-161.893-162.088-55.048 55.115-109.588 109.722-163.217 163.418-22.187-22.204-43.562-43.593-66.041-66.085 53.923-53.974 108.428-108.533 164.244-164.404-54.062-54.114-108.065-108.172-161.694-161.854 21.227-21.251 42.618-42.668 64.549-64.626 53.742 53.816 107.791 107.941 162.006 162.233z" />
<glyph unicode="&#xe90d;" glyph-name="check-circle" d="M512 960c282.752 0 512-229.248 512-512s-229.248-512-512-512c-282.734 0-512 229.248-512 512s229.266 512 512 512zM747.584 677.053c-108.115-107.423-216.318-214.932-326.097-324.006-49.386 49.094-98.109 97.529-145.695 144.833-20.26-20.106-40.513-40.207-60.213-59.756 68.833-68.371 138.372-137.445 207.091-205.703 128.414 127.578 257.419 255.748 385.751 383.246-19.736 19.915-40.046 40.408-60.837 61.386z" />
<glyph unicode="&#xe90e;" glyph-name="check-circle-o" d="M512 960c-282.734 0-512-229.248-512-512s229.266-512 512-512c282.752 0 512 229.248 512 512s-229.248 512-512 512v0zM512-27.429c-262.153 0-475.429 213.275-475.429 475.429s213.275 475.429 475.429 475.429c262.153 0 475.429-213.275 475.429-475.429s-213.275-475.429-475.429-475.429v0zM747.584 677.053c20.791-20.978 41.101-41.471 60.837-61.386-128.332-127.497-257.338-255.667-385.751-383.246-68.719 68.257-138.258 137.332-207.091 205.703 19.699 19.549 39.953 39.651 60.213 59.756 47.587-47.304 96.309-95.739 145.695-144.833 109.779 109.074 217.982 216.583 326.097 324.006z" />
<glyph unicode="&#xe90f;" glyph-name="close-circle-o" d="M512 960c-282.734 0-512-229.248-512-512s229.266-512 512-512c282.752 0 512 229.248 512 512s-229.248 512-512 512v0zM512-27.429c-262.153 0-475.429 213.275-475.429 475.429s213.275 475.429 475.429 475.429c262.153 0 475.429-213.275 475.429-475.429s-213.275-475.429-475.429-475.429v0zM512.053 382.316c-54.215-54.292-108.263-108.416-162.006-162.233-21.931 21.958-43.323 43.375-64.549 64.626 53.628 53.682 107.632 107.74 161.694 161.854-55.816 55.871-110.321 110.43-164.244 164.404 22.479 22.491 43.854 43.881 66.041 66.085 53.63-53.696 108.169-108.303 163.217-163.418 54.127 54.191 108.158 108.288 161.893 162.088 21.91-21.932 43.3-43.345 64.684-64.752-53.693-53.679-107.742-107.712-161.863-161.819 55.685-55.733 110.198-110.296 164.133-164.277-22.381-22.419-43.747-43.82-65.816-65.927-53.695 53.756-108.257 108.38-163.184 163.369z" />
<glyph unicode="&#xe910;" glyph-name="peace-face" d="M662.355 445.103c42.442-0.087 77.051 34.511 77.080 77.056 0.029 42.535-34.573 77.266-76.97 77.253-42.312-0.010-77.2-34.86-77.232-77.146-0.032-42.409 34.619-77.078 77.122-77.163zM362.085 445.103c42.568 0.223 77.158 34.938 77.012 77.282-0.149 42.357-35.055 77.111-77.365 77.027-42.397-0.087-77.002-34.932-76.841-77.37 0.165-42.629 34.816-77.166 77.193-76.939zM384 243.2c-14.138 0-25.6-11.462-25.6-25.6s11.462-25.6 25.6-25.6h256c14.138 0 25.6 11.462 25.6 25.6s-11.462 25.6-25.6 25.6h-256zM512.087 960c283.783 0 512.797-229.511 511.91-514.606-0.874-282.144-230.648-511.221-515.404-509.383-281.618 1.815-509.496 231.119-508.591 515.728 0.893 279.216 231.039 508.261 512.085 508.261z" />
<glyph unicode="&#xe911;" glyph-name="peace-face-o" d="M509.242 4.937c-243.51 0.9-441.091 198.48-440.984 444.382 0.107 241.246 198.568 439.686 441.575 440.355 245.378 0.673 443.942-197.084 443.853-443.409-0.085-243.773-198.22-442.238-444.444-441.328zM511.057 957.88c-280.478 0-510.167-228.405-511.055-506.846-0.904-283.82 226.516-512.487 507.572-514.296 284.185-1.832 513.495 226.608 514.37 507.967 0.882 284.303-227.672 513.178-510.888 513.175zM362.897 590.884c42.473 0.087 77.514-34.777 77.661-77.263 0.148-42.479-34.575-77.302-77.305-77.526-42.537-0.225-77.321 34.421-77.485 77.179-0.164 42.573 34.572 77.523 77.129 77.61zM636.757 590.884c42.473 0.087 77.514-34.777 77.661-77.263 0.148-42.479-34.575-77.302-77.305-77.526-42.537-0.225-77.321 34.421-77.485 77.179-0.164 42.573 34.572 77.523 77.129 77.61zM384 243.2h256c14.138 0 25.6-11.462 25.6-25.6s-11.462-25.6-25.6-25.6h-256c-14.138 0-25.6 11.462-25.6 25.6s11.462 25.6 25.6 25.6z" />
<glyph unicode="&#xe912;" glyph-name="eraser" horiz-adv-x="1178" d="M660.855 129.458l-349.51 353.897 18.805 12.427c1.557 1.029 3.521 2.165 5.731 3.416 3.891 2.202 8.302 4.704 11.115 7.543 109.756 110.673 221.164 223.401 328.906 332.417l74.598 75.483c27.34 27.652 56.044 41.677 85.325 41.677 29.349 0 58.172-14.094 85.667-41.889 62.305-62.986 128.556-130.025 193.34-196.317 46.45-47.53 47.007-108.236 1.411-154.654-105.947-107.867-214.054-217.127-318.599-322.797-35.198-35.574-70.397-71.152-105.586-106.745-2.548-2.581-5.165-4.552-6.571-5.614l-0.37-0.277-12.8-10.553-11.462 11.984zM797.188-64c-125.599 0.047-251.233 0.074-376.832 0.074-124.499 0-248.959-0.023-373.458-0.070-30.449 0-46.196 12.972-46.876 38.548-0.322 12.022 2.891 21.727 9.549 28.858 10.935 11.706 26.646 11.706 37.045 11.706h1.005c43.886-0.079 87.777-0.098 132.333-0.098l97.88 0.014c-13.946 14.676-27.911 29.337-41.88 43.994-27.147 28.495-55.223 57.957-82.696 87.113-49.945 53.005-49.637 116.199 0.822 169.041 27.084 28.364 54.472 56.724 80.957 84.148 11.587 11.999 46.952 48.672 46.952 48.672l355.226-365.557-73.374-67.406 113.453-0.033c40.056 0 80.1 0.033 120.156 0.154l0.889 0.005c30.194 0 45.816-12.707 46.442-37.771 0.366-14.801-5.139-23.877-9.822-28.881-10.314-11.026-24.85-12.511-37.706-12.511h-0.067z" />
<glyph unicode="&#xe913;" glyph-name="eraser-o" horiz-adv-x="1178" d="M656.001 150.709l91.966 91.359c103.523 102.83 210.573 209.156 315.566 314.002 31.616 31.576 31.161 65.349-1.325 97.674-65.134 64.808-130.341 129.006-191.547 189.204-19.313 18.995-36.859 28.234-53.632 28.234-16.969 0-34.766-9.446-54.42-28.87-55.963-55.321-111.898-110.665-167.833-166.009-48.106-47.599-96.213-95.197-144.338-142.778-23.983-23.718-48.029-47.373-71.921-70.875l-19.276-18.977 296.759-292.963zM270.157 355.335c-26.359-26.253-53.614-53.404-80.155-80.136-32.831-33.069-32.872-66.454-0.114-99.23 44.119-44.148 95.457-95.364 146.413-144.564 3.482-3.365 10.414-6.392 14.834-6.473 24.888-0.469 51.834-0.699 82.39-0.699 28.566 0 56.718 0.194 85.453 0.406 5.262 0.041 8.234 0.762 9.272 1.159 19.149 17.34 37.733 35.302 55.712 52.678 1.62 1.565 3.236 3.126 4.843 4.678l-295.917 294.835c-7.592-7.569-15.171-15.12-22.731-22.654zM805.764-63.959l-741.538 0.009c-25.995 0-42.294 4.709-52.849 15.265-7.66 7.659-11.484 17.777-11.375 30.069 0.396 43.011 44.165 43.016 62.854 43.020h153.741c-20.624 20.538-39.954 39.79-59.304 59.025-4.543 4.515-9.126 8.986-13.714 13.451-8.307 8.102-16.9 16.478-25.18 25.080-53.304 55.389-56.245 140.807-6.832 198.686 13.418 15.72 28.248 30.16 42.585 44.121 4.629 4.506 9.258 9.013 13.832 13.555 177.282 176.055 354.606 352.065 531.966 528.038 35.366 35.090 75.876 53.639 117.146 53.639 41.156 0 81.557-18.449 116.836-53.364 57.365-56.765 117.633-116.588 189.677-188.27 69.663-69.314 69.44-158.977-0.569-228.431-104.752-103.917-209.595-207.753-314.433-311.584-51.812-51.311-103.618-102.622-155.416-153.947 0 0 88.398-0.072 102.594-0.072 21.015 0 42.030 0.041 63.040 0.18l0.728 0.005c45.011 0 50.223-30.3 50.373-43.327 0.15-12.829-4.392-42.903-49.649-45.046-2.317-0.108-4.638-0.144-6.964-0.144l-7.551 0.041z" />
<glyph unicode="&#xe914;" glyph-name="play" horiz-adv-x="922" d="M0-64l912.782 512-912.782 512z" />
<glyph unicode="&#xe915;" glyph-name="stop" d="M107.789 960h253.622v-986.309h-253.622v986.309zM646.737 960h253.622v-986.309h-253.622v986.309z" />
<glyph unicode="&#xe916;" glyph-name="import" d="M73.143-64h914.286v109.714h-914.286zM557.197 807.86v-623.853c-23.225 0-44.759-0.25-66.269 0.358-2.36 0.065-5.753 4.741-6.589 7.853-1.157 4.312-0.37 9.17-0.37 13.796-0.003 194.745-0.003 389.487-0.003 584.232 0 5.94 0 11.881 0 22.457-79.83-82.669-156.363-161.925-232.457-240.723-19.92 20.224-36.652 37.213-51.715 52.505 106.12 110.348 212.535 221.002 320.991 333.778 108.383-112.424 214.734-222.742 320.224-332.168-15.227-15.462-32.211-32.709-50.958-51.746-75.194 77.71-151.616 156.687-228.034 235.665-1.606-0.719-3.214-1.437-4.82-2.153zM0-63.914h87.858v388.627h-87.858zM936.142-63.914h87.858v388.627h-87.858z" />
<glyph unicode="&#xe917;" glyph-name="maintenance" d="M8.839 80.074c-9.308 30.482-11.222 60.47-5.941 90.657 17.642 100.854 105.522 169.942 207.953 163.376 13.906-0.894 27.721-4.311 41.378-7.421 5.78-1.319 9.208-0.13 13.293 3.962 93.487 93.633 187.127 187.108 280.737 280.622 27.587 27.556 55.054 55.231 82.84 82.583 4.618 4.549 5.971 8.334 4.108 14.877-26.336 92.26 15.751 187.76 101.441 230.925 42.214 21.266 102.883 26.682 144.81 12.33-2.57-2.777-4.733-5.262-7.053-7.59-26.616-26.712-53.164-53.501-79.987-80.006-4.33-4.276-5.837-7.858-4.050-14.079 8.453-29.431 16.461-58.997 24.223-88.624 1.496-5.714 4.127-8.292 9.849-9.807 29.297-7.755 58.518-15.809 87.627-24.239 6.635-1.925 10.869-1.012 15.836 4.092 25.635 26.336 51.748 52.205 77.636 78.292 2.455 2.47 4.51 5.331 6.754 8.012 1.062-0.226 2.129-0.456 3.191-0.683 2.27-13.845 5.55-27.61 6.646-41.551 7.878-99.876-65.628-193.152-164.392-208.631-28.983-4.541-57.981-4.318-86.246 4.967-5.887 1.937-9.649 0.859-14.144-3.643-121.039-121.223-242.212-242.312-363.597-363.19-5.239-5.22-5.316-9.557-3.548-15.885 30.778-110.132-37.903-223.244-149.78-246.888-31.851-6.731-63.381-5.224-96.39 4.038 2.953 3.248 5.047 5.745 7.341 8.046 26.425 26.451 52.761 52.995 79.439 79.189 4.483 4.403 5.481 8.119 3.77 14.137-8.46 29.761-16.242 59.722-24.806 89.452-0.982 3.413-4.886 7.517-8.242 8.476-30.359 8.694-60.842 16.994-91.466 24.691-3.505 0.882-9.212-1.48-12.035-4.242-26.739-26.137-53.068-52.692-79.535-79.105-2.213-2.209-4.572-4.272-7.659-7.141zM539.271 296.474c41.8 41.397 83.201 82.396 125.653 124.437 10.443-10.677 21.934-22.574 33.577-34.317 95.117-95.968 190.257-191.914 285.401-287.855 15.931-16.070 16.012-30.264-0.081-46.418-25.704-25.792-51.468-51.526-77.302-77.184-17.477-17.358-31.15-17.354-48.462 0.050-104.517 105.092-208.992 210.227-313.467 315.365-1.987 2.002-3.782 4.2-5.319 5.922zM370.608 633.152c16.058 16.211 32.48 32.269 48.232 48.956 5.726 6.071 9.197 6.531 15.172 0.234 13.557-14.298 27.936-27.817 42.356-42.019-4.886-5.611-8.775-10.079-14.033-16.119 7.674-6.259 14.846-12.104 21.531-17.554-42.793-42.348-84.179-83.305-126.14-124.828-4.932 5.369-11.517 12.545-18.681 20.35-5.5-4.855-9.914-8.756-13.435-11.862-16.568 16.568-32.68 32.68-49.547 49.547 17.757 17.347 36.177 35.341 55.131 53.85-2.819 3.168-4.537 5.331-6.485 7.256-51.775 51.204-103.551 102.404-155.418 153.516-4.134 4.077-7.552 11.065-15.571 5.308-1.085-0.779-4.618 1.354-6.742 2.608-18.137 10.7-36.235 21.466-54.268 32.331-2.412 1.454-4.921 3.206-6.547 5.431-22.816 31.169-45.489 62.441-68.163 93.717-0.717 0.993-1.039 2.274-1.741 3.854 15.368 15.306 30.613 30.751 46.291 45.743 1.695 1.622 6.869 2.013 8.779 0.656 31.215-22.21 62.901-43.867 92.754-67.81 9.887-7.927 14.984-21.888 22.083-33.209 4.917-7.839 9.561-15.851 14.221-23.843 2.577-4.426 7.394-8.487 2.259-14.409-0.575-0.663 1.101-4.104 2.489-5.515 54.019-54.824 108.126-109.56 162.248-164.289 0.629-0.633 1.58-0.947 3.225-1.898z" />
<glyph unicode="&#xe918;" glyph-name="import-export" horiz-adv-x="1178" d="M0.003-62.551h1093.47v79.828h-1093.47zM354.097 220.864v520.4c19.724 0 38.011 0.208 56.279-0.298 2.004-0.057 4.886-3.954 5.596-6.553 0.983-3.594 0.314-7.647 0.314-11.506 0.003-162.451 0.003-324.901 0.003-487.349v-18.733c67.792 68.96 132.788 135.073 197.413 200.804 16.917-16.873 31.127-31.042 43.919-43.8-90.122-92.047-180.494-184.351-272.6-278.425-92.044 93.781-182.362 185.805-271.949 277.085 12.931 12.898 27.355 27.285 43.276 43.165 63.858-64.823 128.759-130.704 193.657-196.585 1.364 0.599 2.73 1.196 4.093 1.796zM810.242 831.965v-520.4c-19.724 0-38.011-0.208-56.279 0.298-2.004 0.057-4.886 3.954-5.596 6.553-0.983 3.594-0.314 7.649-0.314 11.506-0.003 162.451-0.003 324.901-0.003 487.349v18.733c-67.792-68.96-132.788-135.070-197.413-200.804-16.917 16.873-31.127 31.044-43.919 43.8 90.122 92.047 180.494 184.351 272.6 278.428 92.044-93.783 182.362-185.807 271.949-277.087-12.931-12.898-27.355-27.285-43.276-43.165-63.858 64.823-128.759 130.704-193.657 196.585-1.364-0.599-2.73-1.196-4.093-1.796zM0-62.477h74.613v324.181h-74.613zM1054.874-62.477h74.613v324.181h-74.613z" />
<glyph unicode="&#xe919;" glyph-name="database-refresh" horiz-adv-x="1075" d="M74.694 811.2c10.032 8.947 21.055 17.302 32.865 23.628 44.175 23.653 92.259 35.558 141.161 44.303 58.814 10.518 118.233 14.288 187.372 14.38 71.296-0.447 151.402-6.692 229.667-28.157 32.769-8.986 64.915-19.841 93.704-38.565 6.388-4.153 12.44-9.036 17.918-14.337 12.252-11.855 12.256-22.462 0.227-34.37-18.923-18.735-42.709-29.359-67.033-38.529-67.73-25.533-138.559-35.788-210.28-40.437-55.106-3.575-110.297-3.248-165.375 1.309-65.432 5.411-129.95 15.72-191.792 38.884-21.586 8.085-42.514 17.646-60.62 32.363-2.741 2.227-5.372 4.631-7.822 7.174-10.705 11.124-11.388 22.185 0.007 32.355zM594.195 20.661c-22.564-3.638-45.326-6.316-68.215-8.355-60.655-5.404-121.416-5.617-182.071-1.422-69.299 4.794-137.695 15.483-203.045 40.416-23.428 8.94-46.236 19.451-64.78 37.203-6.034 5.773-9.572 12.288-9.536 20.976 0.177 44.264 0.081 88.524 0.081 133.503 15.007-6.919 28.661-13.749 42.723-19.596 55.712-23.174 114.352-34.558 173.807-42.448 58.888-7.816 118.091-10.621 177.404-8.596 24.497 0.837 48.927 2.241 73.24 4.422-1.381 21.813-0.368 44.076 3.173 66.225-0.981-0.096-1.958-0.202-2.936-0.294-66.562-6.373-133.18-6.706-199.77-1.415-65.457 5.199-129.957 15.777-191.774 39.012-22.128 8.316-43.523 18.274-61.923 33.639-8.467 7.075-14.324 15.039-14.232 27.011 0.329 43.693 0.131 87.392 0.131 130 28.144-11.018 55.382-22.944 83.452-32.387 45.712-15.376 93.208-23.054 140.96-28.944 71.969-8.88 144.182-10.412 216.441-5.177 42.578 3.082 84.848 7.89 126.406 16.213 21.066 18.6 45.439 34.735 73.229 47.455l-9.798 37.029c-55.478-19.167-113.070-28.423-171.484-33.614-60.655-5.39-121.42-5.603-182.071-1.379-68.994 4.805-137.103 15.415-202.192 40.207-23.722 9.032-46.813 19.596-65.542 37.607-5.783 5.557-9.285 11.819-9.271 20.178 0.060 43.71-0.113 87.421-0.166 131.131 0 0.812 0.478 1.624 1.023 3.358 5.595-2.986 10.85-6.021 16.296-8.667 51.668-25.072 106.625-39.090 162.96-48.452 70.627-11.734 141.785-16.266 213.261-13.929 85.4 2.787 170 12.266 251.569 39.334 23.927 7.94 46.59 19.706 69.834 29.714 1.278 0.553 2.553 1.106 4.317 1.869 0.457-1.66 0.995-2.702 0.995-3.752-0.057-43.416-0.251-86.832-0.188-130.248 0.011-8.688-3.608-15.178-9.674-20.915-13.275-12.564-28.661-21.479-44.88-28.816l120.443-51.388c0 37.749 0 75.498 0 113.248 0 66.488-0.014 132.972 0.021 199.459 0.004 5.603 0.974 11.27 0.418 16.795-3.074 30.582-18.52 54.083-42.043 72.988-29.487 23.696-63.584 38.281-99.040 49.842-80.322 26.185-163.392 36.114-247.312 39.044-85.751 2.993-170.984-3.11-255.099-20.933-52.128-11.046-102.982-25.997-148.594-54.757-39.143-24.678-62.153-57.179-60.676-106.861 2.319-77.931 0.683-155.983 0.598-233.981-0.078-68.846-0.453-137.692-0.45-206.534 0-72.984 0.914-145.972 0.195-218.942-0.351-35.884 14.699-62.846 41.533-84.687 29.108-23.692 62.974-38.097 98.095-49.764 65.641-21.806 133.527-32.008 202.206-36.88 99.911-7.085 199.306-2.688 297.627 17.564 2.542 0.525 5.081 1.064 7.613 1.61-19.345 16.206-37.468 35.231-53.29 56.083zM721.077 561.75c17.32 0.208 31.287 14.462 31.178 31.821-0.103 17.322-14.272 31.394-31.608 31.391-17.34 0-31.506-14.073-31.605-31.398-0.106-17.687 14.33-32.026 32.036-31.815zM815.47 12.405c15.626 22.751 30.58 44.523 46.45 67.631 3.248-10.69 5.941-19.544 8.621-28.36 55.799 15.788 113.124 74.693 118.2 153.709 5.309 82.619-47.804 163.446-139.385 184.365 2.435 13.050 4.881 26.164 7.32 39.246 60.712-7.448 145.214-62.903 168.407-163.371 22.78-98.679-28.141-215.931-142.64-255.469 2.502-9.429 5.026-18.92 7.967-29.984-25.526 10.979-49.451 21.272-74.938 32.234zM741.437 420.785c-2.245 8.492-4.511 17.065-7.184 27.176 25.522-10.898 49.45-21.119 74.895-31.985-15.4-22.289-30.433-44.049-46.442-67.22-3.493 11.593-6.417 21.293-9.334 30.968-60.753-16.405-112.198-81.818-117.186-148.61-2.153-28.771 1.665-56.602 13.025-83.282 11.211-26.329 27.782-48.575 49.758-66.855 22.192-18.457 47.711-30.047 76.5-36.624-2.606-13.528-5.059-26.258-7.485-38.829-61.489-2.662-145.502 75.846-166.764 154.73-26.191 97.143 21.199 218.849 140.216 260.531z" />
<glyph unicode="&#xe91a;" glyph-name="export" d="M73.143-64h914.286v109.714h-914.286zM483.605 334.357v623.853c23.225 0 44.759 0.25 66.269-0.358 2.36-0.065 5.753-4.741 6.589-7.853 1.157-4.312 0.37-9.17 0.37-13.796 0.003-194.745 0.003-389.487 0.003-584.232 0-5.94 0-11.881 0-22.457 79.83 82.669 156.363 161.925 232.457 240.723 19.92-20.224 36.652-37.213 51.715-52.505-106.12-110.348-212.535-221.002-320.991-333.778-108.383 112.424-214.734 222.742-320.224 332.168 15.227 15.462 32.211 32.709 50.958 51.746 75.194-77.71 151.616-156.687 228.034-235.665 1.606 0.719 3.214 1.437 4.82 2.153zM0-63.914h87.858v388.627h-87.858zM936.142-63.914h87.858v388.627h-87.858z" />
<glyph unicode="&#xe91b;" glyph-name="minimize" d="M150.402 384.529v-93.021h132.306l6.002-11.757-280.247-277.878 67.876-65.872 287.214 286.378v-142.869h93.44v305.020zM0 881.225l289.403-285.643h-141.175v-92.574h308.763v306.156h-95.449v-143.895l-287.14 286.267zM943.35 960l-284.354-284.898v140.098h-91.988v-303.729h303.6v92.669h-140.776l285.705 284.57zM567.008 384.529v-307.296h93.68v132.85l11.097 5.504 275.534-279.586 68.218 65.57-287.179 289.96h141.968v92.999z" />
<glyph unicode="&#xe91c;" glyph-name="select" horiz-adv-x="819" d="M170.189 88.411c0.741 0.962 1.447 1.898 2.128 2.841 12.173 16.784 24.357 33.564 36.541 50.34 41.144 56.666 83.694 115.26 125.061 173.213 12.702 17.795 28.034 27.333 48.245 30.011 34.066 4.519 68.66 9.598 102.117 14.515l11.674 1.712c39.731 5.833 79.454 11.735 121.044 17.916l38.555 5.723-564.24 442.118 78.875-738.391zM143.368-64c-5.038 0-10.483 1.083-16.647 3.314-15.805 5.723-24.822 18.026-26.81 36.564-7.736 72.162-15.423 144.324-23.106 216.489-4.939 46.359-9.875 92.718-14.826 139.077-6.53 61.162-13.080 122.32-19.629 183.478-6.814 63.628-13.624 127.256-20.419 190.884-4.924 46.147-9.807 92.298-14.69 138.449l-6.659 62.874c-2.781 22.613 4.41 38.844 21.386 48.12 5.767 3.151 11.734 4.75 17.74 4.75 12.906 0 23.915-7.329 32.063-13.716 269.702-211.364 493.354-386.506 703.84-551.174 12.486-9.769 26.027-24.072 19.897-48.181-5.812-22.882-24.474-28.469-40.078-30.78l-41.375-6.132c-97.805-14.496-198.94-29.488-298.533-43.458-12.056-1.689-19.3-6.17-26.734-16.526-64.303-89.597-130.065-180.41-193.661-268.231l-16.681-23.041c-11.553-15.954-22.044-22.761-35.078-22.761z" />
<glyph unicode="&#xe91d;" glyph-name="coding" horiz-adv-x="1536" d="M1425.474 448.664c-41.006 38.929-78.698 73.98-115.554 109.859-56.634 55.146-112.835 110.732-168.945 166.399-26.992 26.779-29.374 52.83-7.693 73.666 20.742 19.932 46.177 17.409 72.531-8.366 102.473-100.226 204.818-200.59 306.953-301.148 31.091-30.614 31.021-51.707-0.466-82.704-102.128-100.565-204.525-200.872-306.991-301.111-25.939-25.38-50.659-27.652-72.62-7.669-20.832 18.959-19.236 46.391 6.212 71.369 93.235 91.528 186.962 182.559 286.575 279.704zM112.006 452.91c91.024-90.123 179.408-177.631 267.78-265.157 6.74-6.669 13.765-13.13 19.91-20.325 18.612-21.814 18.486-46.667 0.133-65.282-17.967-18.222-43.888-18.913-65.057 0.697-25.504 23.625-49.458 48.928-74.082 73.516-78.341 78.222-156.783 156.343-234.966 234.724-34.117 34.202-34.294 54.217-0.544 88.027 100.561 100.732 201.298 201.294 302.138 301.741 26.662 26.558 52.926 28.451 74.278 6.296 19.258-19.983 16.1-45.939-9.822-72.034-84.695-85.284-169.656-170.309-254.465-255.486-7.316-7.347-14.271-15.049-25.302-26.716zM557.314-60.469c-25.789 10.259-38.483 39.759-28.354 65.879l357.732 922.337c10.135 26.127 39.255 38.984 65.044 28.719 25.796-10.259 38.489-39.753 28.354-65.879l-357.732-922.337c-10.129-26.121-39.255-38.978-65.044-28.719z" />
<glyph unicode="&#xe91e;" glyph-name="save" d="M884.371-9.208l-0.002 11.364c0 127.985 0.008 255.969-0.008 383.954 0 26.374-12.576 39.124-38.655 39.128-222.733 0.012-445.467 0.012-668.2-0.004-27.475 0-40.346-12.996-40.35-40.729-0.023-127.661-0.012-255.326-0.012-382.988l-0.003-10.725h747.229zM511.752-63.969c-157.554 0-315.108-0.004-472.658 0.004-27.038 0-39.073 12.011-39.073 39.32-0.027 313.721-0.027 627.446-0.004 941.168 0 27.76 12.020 39.693 39.714 39.693 55.607 0.008 111.213 0.027 166.82-0.008 19.859-0.012 26.517-6.714 26.517-26.489 0.004-110.349-0.004-220.699 0.004-331.048 0-28.988 11.855-40.887 40.695-40.887 153.078 0 306.157-0.004 459.235 0.004 27.69 0 40.12 12.604 40.124 40.687 0.008 110.992 0 221.981 0.008 332.969 0 18.971 5.726 24.768 24.403 24.772 38.030 0.008 76.064-0.166 114.090 0.108 11.306 0.081 20.365-3.769 28.235-11.722 22.969-23.209 45.992-46.38 69.264-69.289 8.526-8.396 12.664-18.024 12.464-30.008-0.299-18.282-0.073-36.568-0.073-54.853 0-269.774 0.004-539.552-0.008-809.326 0-4.489 0.065-8.993-0.226-13.466-1.231-18.817-14.336-31.509-33.044-31.578-38.989-0.146-77.974-0.050-116.962-0.050-119.843 0-239.685 0-359.524 0zM554.667 604.444h142.222v298.667h-142.222z" />
<glyph unicode="&#xe91f;" glyph-name="option" horiz-adv-x="922" d="M429.579 762.386h441.482c27.91 0 50.539 22.791 50.539 50.901s-22.63 50.901-50.539 50.901h-439.223c5.262-14.989 8.152-31.103 8.152-47.906 0-19.067-3.722-37.247-10.411-53.895zM50.539 762.386h114.463c-6.695 16.647-10.411 34.828-10.411 53.895 0 16.803 2.89 32.918 8.152 47.906h-112.203c-27.91 0-50.539-22.791-50.539-50.901s22.63-50.901 50.539-50.901zM871.061 498.901h-55.005c6.695-16.647 10.411-34.828 10.411-53.895 0-16.803-2.89-32.918-8.152-47.906h52.745c27.91 0 50.539 22.791 50.539 50.901s-22.63 50.901-50.539 50.901zM551.479 498.901h-500.94c-27.91 0-50.539-22.791-50.539-50.901s22.63-50.901 50.539-50.901h498.681c-5.262 14.989-8.152 31.103-8.152 47.906 0 19.067 3.722 37.247 10.411 53.895zM325.539 133.614h-274.999c-27.91 0-50.539-22.791-50.539-50.901s22.63-50.901 50.539-50.901h272.74c-5.262 14.989-8.152 31.103-8.152 47.906 0 19.067 3.722 37.247 10.411 53.895zM871.061 133.614h-280.945c6.695-16.647 10.411-34.828 10.411-53.895 0-16.803-2.89-32.918-8.152-47.906h278.686c27.91 0 50.539 22.791 50.539 50.901s-22.63 50.901-50.539 50.901zM297.29 732.444c-45.973 0-83.241 37.535-83.241 83.836s37.268 83.836 83.241 83.836c45.973 0 83.241-37.535 83.241-83.836s-37.268-83.836-83.241-83.836zM297.29 960c-78.812 0-142.699-64.344-142.699-143.719s63.888-143.719 142.699-143.719c78.812 0 142.699 64.344 142.699 143.719s-63.888 143.719-142.699 143.719zM683.768 361.17c-45.973 0-83.241 37.535-83.241 83.836s37.268 83.836 83.241 83.836c45.973 0 83.241-37.535 83.241-83.836s-37.268-83.836-83.241-83.836zM683.768 588.725c-78.812 0-142.699-64.344-142.699-143.719s63.888-143.719 142.699-143.719c78.812 0 142.699 64.344 142.699 143.719s-63.888 143.719-142.699 143.719zM457.827-4.117c-45.973 0-83.241 37.535-83.241 83.836s37.268 83.836 83.241 83.836c45.973 0 83.241-37.535 83.241-83.836s-37.268-83.836-83.241-83.836zM457.827 223.439c-78.812 0-142.699-64.344-142.699-143.719s63.888-143.719 142.699-143.719c78.812 0 142.699 64.344 142.699 143.719s-63.888 143.719-142.699 143.719z" />
<glyph unicode="&#xe920;" glyph-name="date-time" d="M446.357 193.956v-63.443h-10.488c-120.459 0-240.919-0.056-361.374 0.034-38.291 0.030-65.126 20.333-72.828 55.089-1.408 6.351-1.589 13.067-1.592 19.614-0.079 185.080-0.098 370.161-0.038 555.238 0.015 41.344 27.155 69.85 68.435 72.041 8.67 0.463 17.389 0.068 27.648 0.068 0-13.116-0.614-25.284 0.124-37.368 1.641-26.771 20.789-49.404 46.69-56.188 39.424-10.323 78.193 17.999 79.97 58.662 0.489 11.204 0.072 22.449 0.072 34.334h383.544c0-10.093-0.056-19.742 0.008-29.387 0.252-36.702 26.737-64.956 61.184-65.318 37.843-0.399 65.434 26.187 66.432 64.184 0.264 9.992 0.038 19.994 0.038 29.85 48.038 7.172 82.805-10.771 93.5-53.304 1.585-6.317 2.206-13.033 2.221-19.565 0.143-79.364 0.094-158.728 0.075-238.091 0-1.837-0.226-3.674-0.384-6.144h-63.036v126.174h-702.231c-0.151-3.467-0.425-6.814-0.425-10.165-0.023-140.533-0.023-281.065-0.015-421.602 0-14.468 0.26-14.709 14.754-14.709 118.573-0.004 237.15-0.004 355.727-0.004h11.991zM765.515 2.703c104.117-0.493 190.776 84.585 191.736 188.232 0.99 107.038-83.821 194.040-190.295 194.549-107.686 0.516-189.323-85.801-192.478-183.59-3.599-111.672 84.823-199.394 191.036-199.191zM765.545-60.846c-133.914-2.244-259.294 109.384-254.95 264.712 3.753 134.178 115.919 245.64 255.375 245.752 141.549 0.113 255.608-114.861 255.138-257.615-0.471-141.967-118.682-254.652-255.563-252.849zM319.424 450.27h127.025v126.456h-127.025zM511.232 450.376h126.536v126.449h-126.536zM319.424 258.616h126.705v126.509h-126.705zM128.166 450.127h126.483v126.78h-126.483zM128.109 258.443h126.283v126.889h-126.283zM638.418 864.894c0.004 20.378-0.105 40.757 0.034 61.131 0.136 19.983 12.868 33.747 31.119 33.973 18.308 0.226 32.098-13.082 32.587-32.787 0.572-22.871 0.173-45.768 0.173-68.653 0-19.121 0.361-38.257-0.158-57.367-0.482-17.728-11.919-29.963-28.574-31.902-15.635-1.818-30.17 7.808-34.025 23.322-1.333 5.361-1.077 11.181-1.114 16.794-0.12 18.496-0.045 36.992-0.041 55.488zM191 863.92c0.011-21.937 0.523-43.889-0.166-65.803-0.482-15.398-12.024-26.673-27.343-28.751-14.946-2.033-29.131 6.46-33.871 20.849-1.438 4.371-1.976 9.216-1.992 13.847-0.151 40.433-0.248 80.87-0.019 121.299 0.113 20.352 12.642 34.142 30.569 34.616 17.581 0.459 31.97-11.671 32.614-29.312 0.813-22.223 0.196-44.495 0.207-66.744zM766.186 193.952c31.91 0 62.28 0.512 92.616-0.35 7.88-0.226 16.632-3.253 23.228-7.639 10.726-7.127 14.231-21.677 9.856-33.694-4.54-12.472-13.064-21.135-26.94-21.24-44.819-0.346-89.645-0.504-134.46 0.102-15.605 0.211-27.727 13.056-27.881 28.777-0.433 44.198-0.407 88.407-0.030 132.604 0.128 15.288 13.143 28.1 27.93 29.24 17.013 1.31 31.473-9.062 34.455-25.148 0.964-5.195 1.156-10.586 1.175-15.891 0.109-28.484 0.053-56.971 0.053-86.761z" />
<glyph unicode="&#xe921;" glyph-name="rhombus" horiz-adv-x="768" d="M60.409 443.246c77.597-110.158 156.278-222.23 232.388-330.64l53.035-75.533c5.942-8.463 11.905-16.913 17.96-25.487l53.128 75.634c81.987 116.72 166.747 237.398 250.28 356.043-78.647 111.669-158.415 225.263-235.571 335.135l-50.389 71.753c-5.778 8.224-11.566 16.44-17.471 24.813l-46.683-66.483c-84.069-119.743-170.994-243.547-256.677-365.236zM363.632-64c-6.151 0-15.18 2.342-23.276 13.501-6.964 9.603-13.826 19.435-20.459 28.944-2.677 3.836-5.351 7.671-8.038 11.496l-302.108 430.288c-12.996 18.511-12.999 27.547-0.017 46.037l21.748 30.976c101.889 145.119 203.778 290.238 305.766 435.28 3.005 4.277 6.462 7.605 9.806 10.829 1.388 1.341 2.875 2.769 4.434 4.384l11.826 12.264 12.206-11.871c1.426-1.39 2.769-2.588 4.010-3.697 3.159-2.832 6.428-5.76 9.279-9.794 21.040-29.733 41.958-59.552 62.878-89.375l266.161-379.036c12.978-18.479 12.975-27.512-0.017-46.016l-328.229-467.396c-0.879-1.282-1.768-2.557-2.718-3.78-8.363-10.774-17.259-13.035-23.252-13.035z" />
<glyph unicode="&#xe922;" glyph-name="full-screen" d="M691.123 960v-103.738h155.214l-333.77-331.107-330.513 331.002h150.426v103.155h-332.48v-332.6h103.712v155.082l332.683-333.849-332.788-331.747v152.1h-102.783v-332.484h332.631v103.817h-153.322l333.078 331.867 330.442-332.352h-151.705v-102.76h332.202v332.364h-103.633v-154.217l-331.972 334.541 332.333 330.337v-151.904h102.895v332.495z" />
<glyph unicode="&#xe923;" glyph-name="zoom-out" d="M82.85 559.296c0-83.227 31.721-161.743 89.315-221.078 56.86-58.576 132.636-92.44 213.366-95.36 88.007-3.182 170.743 27.939 232.969 87.626 62.358 59.815 96.966 140.726 97.442 227.823-0.060 83.639-32.005 162.646-89.957 222.352-58.451 60.227-137.095 93.947-221.433 94.952-86.212 1.028-166.825-30.852-226.984-89.772-60.314-59.071-93.947-138.482-94.707-223.602l-0.011-2.94zM1022.459-23.753c0-14.257-8.664-28.351-21.561-35.065-17.359-9.042-35.421-6.155-49.553 7.916-32.893 32.757-65.736 65.562-98.576 98.368 0 0-151.578 151.367-202.159 201.853-92.919-73.486-198.611-101.818-314.425-84.232-98.304 14.929-180.999 62.645-245.779 141.833-58.3 71.264-90.407 160.908-90.407 252.418 0 106.742 41.791 206.976 117.677 282.246 147.513 146.315 378.052 156.823 536.255 24.448 86.224-72.152 134.314-165.117 142.941-276.318 0.854-11.037 1.289-22.12 1.289-32.946 0.004-89.934-30.070-173.528-89.447-248.753 99.558-99.438 197.224-197.031 296.556-296.661 5.411-5.426 12.526-14.151 15.715-24.92 0.979-3.295 1.474-6.722 1.474-10.187zM178.087 514.783h422.957v66.783h-422.957z" />
<glyph unicode="&#xe924;" glyph-name="zoom-in" d="M82.546 558.274c0-82.921 31.605-161.148 88.986-220.265 56.651-58.36 132.149-92.1 212.582-95.010 87.684-3.17 170.116 27.836 232.113 87.304 62.129 59.595 96.61 140.209 97.084 226.985-0.060 83.332-31.887 162.048-89.626 221.534-58.236 60.006-136.591 93.602-220.619 94.603-85.896 1.024-166.212-30.739-226.15-89.442-60.092-58.854-93.602-137.973-94.359-222.78l-0.011-2.929zM1018.7-22.632c0-14.204-8.632-28.247-21.481-34.936-17.295-9.009-35.29-6.133-49.37 7.887-32.772 32.636-65.495 65.321-98.214 98.007 0 0-151.021 150.81-201.416 201.111-92.578-73.216-197.88-101.444-313.269-83.923-97.943 14.874-180.333 62.415-244.875 141.312-58.086 71.002-90.074 160.316-90.074 251.49 0 106.349 41.638 206.216 117.244 281.208 146.97 145.777 376.663 156.247 534.283 24.358 85.907-71.887 133.82-164.51 142.415-275.302 0.851-10.997 1.284-22.039 1.284-32.824 0.004-89.604-29.96-172.89-89.118-247.838 99.192-99.072 196.499-196.307 295.465-295.571 5.391-5.406 12.48-14.099 15.657-24.828 0.975-3.283 1.468-6.697 1.468-10.15zM187.61 523.866h417.882v68.028h-417.882zM362.541 348.936h68.028v417.882h-68.028z" />
<glyph unicode="&#xe925;" glyph-name="forbid" d="M843.254 712.181c-199.275-199.161-397.743-397.515-596.062-595.721 162.464-133.673 411.671-125.339 568.579 35.438 160.155 164.107 153.598 409.455 27.483 560.283zM776.738 778.368c-142.165 124.18-399.045 140.286-569.687-33.611-165.418-168.568-148.903-425.274-25.686-561.047 198.433 198.199 396.933 396.456 595.373 594.658zM510.836-63.999c-283.247 3.371-511.144 225.816-510.836 512.52 0.308 287.93 229.476 510.008 511.615 511.472 281.894 1.467 514.257-232.412 512.373-512.922-1.894-282.164-232.283-511.621-513.152-511.070z" />
<glyph unicode="&#xe926;" glyph-name="recommendation" horiz-adv-x="1280" d="M410.010 554.112c15.861 17.051 31.037 32.727 45.443 49.105 8.285 9.422 17.627 13.535 30.138 13.364 38.665-0.524 77.341-0.192 116.012-0.192h10.494v-53.722c-20.365 0-40.541-0.046-60.716 0.016-13.764 0.042-27.545-0.172-41.283 0.476-13.516 0.636-23.979-4.369-32.848-14.557-9.55-10.969-19.454-21.662-29.736-31.922-21.172-21.127-50.21-22.492-72.691-2.74-12.853 11.295-24.579 23.965-36.409 36.413-8.519 8.966-18.282 13.114-30.655 12.714-30.7-0.995-54.948 21.976-55.106 53.7-0.47 96.015-0.5 192.038 0 288.053 0.183 34.888 23.717 55.039 62.325 55.085 97.014 0.116 194.028 0.040 291.043 0.040 39.33 0 78.659 0.192 117.987-0.15 8.748-0.076 17.806-0.889 26.154-3.354 21.953-6.48 35.144-22.873 35.645-45.225 1.342-59.598 0.456-119.248 0.456-179.554h-51.994v172.404h-427.001v-287.803c7.703 0 15.483-0.62 23.129 0.14 12.587 1.253 21.846-3.63 30.313-12.834 13.87-15.082 28.568-29.379 42.961-43.962 1.808-1.831 3.885-3.384 6.338-5.495zM762.798 523.538c37.179 0.058 67.599 28.473 67.685 63.224 0.090 36.199-29.78 64.296-68.479 64.417-36.371 0.111-66.982-29.319-66.748-64.177 0.234-34.759 30.843-63.522 67.542-63.463zM836.487 491.886c-6.434 3.425-11.191 5.88-15.87 8.461-16.12 8.891-28.921 3.577-34.213-13.618-1.737-5.642-4.517-14.63-8.287-15.374-9.987-1.966-20.881-0.948-31.177 0.448-2.681 0.364-5.552 6.213-6.539 9.967-6.092 23.179-16.415 27.894-39.216 17.351-12.971-5.999-34.551 4.811-36.25 18.811-0.441 3.642 2.291 7.97 4.447 11.499 11.308 18.519 6.123 31.040-15.301 36.266-14.44 3.521-14.731 3.895-14.789 18.453-0.012 2.918 0.279 5.899-0.246 8.737-1.826 9.885 3.542 14.403 12.834 16.363 24.185 5.103 29.959 17.519 16.793 37.677-5.261 8.054-5.327 14.311 2.792 20.144 0.539 0.389 0.97 0.913 1.458 1.366 17.275 16.047 13.439 16.403 34.707 4.903 12.959-7.011 26.244-1.623 30.804 11.88 7.173 21.242 7.167 20.96 31.050 20.483 9.491-0.191 14.614-3.68 16.062-12.616 0.615-3.795 1.953-7.591 3.618-11.106 5.007-10.57 16.083-14.603 27.264-9.907 4.344 1.824 8.118 5.064 12.573 6.405 3.862 1.162 9.733 2.267 12.245 0.403 7.464-5.543 13.919-12.386 20.232-19.171 1.126-1.211 0.306-4.837-0.687-6.88-2.422-4.988-5.729-9.586-8.217-14.549-5.191-10.356-0.509-22.194 10.438-26.878 1.852-0.792 3.854-1.277 5.807-1.841 23.096-6.686 21.793-14.444 17.701-33.081-0.972-4.428-8.475-9.189-13.958-10.82-22.997-6.845-27.764-16.802-15.792-36.522 5.163-8.501 4.551-15.841-3.382-22.486-5.719-4.788-11.232-9.798-16.903-14.767zM518.875 826.453c-43.891 0-87.783-0.056-131.674 0.031-16.85 0.033-25.565 4.781-29.616 15.592-4.494 11.99 2.025 23.636 15.561 27.055 4.442 1.122 9.217 1.627 13.842 1.634 87.11 0.156 174.221 0.235 261.333 0.169 5.946-0.005 12.101-0.62 17.791-2.103 10.562-2.754 16.812-11.036 16.546-20.416-0.269-9.431-6.839-17.597-17.258-20.051-5.749-1.354-11.896-1.812-17.867-1.832-42.885-0.147-85.77-0.078-128.658-0.078zM520.532 781.893c44.885-0.006 89.77 0.074 134.655-0.050 14.968-0.043 22.693-4.923 26.23-15.707 3.734-11.382-0.979-21.388-13.009-25.588-5.497-1.92-11.682-3.011-17.56-3.024-88.429-0.186-176.86-0.143-265.291-0.078-3.639 0.002-7.385 0.344-10.898 1.182-12.629 3.011-19.263 11.52-18.412 23.122 0.772 10.528 9.209 18.71 21.617 19.567 11.332 0.784 22.755 0.544 34.138 0.563 36.177 0.054 72.353 0.019 108.53 0.013zM445.1 648.371c-20.774 0-41.549-0.063-62.323 0.021-16.63 0.065-26.694 8.491-26.602 22.039 0.090 13.392 10.389 22.274 26.696 22.33 41.549 0.145 83.097 0.147 124.646-0.004 16.203-0.060 26.676-9.082 26.744-22.334 0.068-13.222-10.529-21.989-26.838-22.037-20.774-0.062-41.549-0.015-62.323-0.015zM966.983 62.503c-82.277 5.112-162.594-10.314-243.241-22.95-41.437-6.493-83.222-14.655-124.849-14.661-29.127-0.005-61.685 6.41-86.782 20.533-101.682 57.22-201.541 117.76-301.097 178.675-47.118 28.827-91.917 61.442-138.031 91.943-12.008 7.94-21.549 16.393-15.354 32.207 6.631 16.931 19.552 23.977 37.244 19.964 9.781-2.216 19.493-5.562 28.608-9.758 89.84-41.334 179.602-82.857 269.215-124.679 7.488-3.496 15.282-8.359 20.362-14.668 19.529-24.256 44.832-35.134 75.234-35.899 91.641-2.306 183.284-4.672 274.927-6.893 17.034-0.416 33.552 1.006 38.261 22.001 4.477 19.971-9.007 32.566-36.537 33.293-86.986 2.296-173.985 4.207-260.979 6.327-7.756 0.186-16.871-1.65-22.94 1.766-9.626 5.417-23.167 13.637-24.369 22.18-2.209 15.7 12.488 21.952 26.825 22.169 22.514 0.344 45.227 1.001 67.54-1.396 86.429-9.28 168.015 12.851 250.124 34.898 78.312 21.029 154.312 2.976 228.913-21.277 2.549-0.83 5.057-3.351 7.165-6.539v63.909c-7.328 1.88-13.422 3.294-19.372 5.122-88.397 27.149-176.996 31.752-266.258 3.736-26.655-8.365-53.602-19.478-80.931-21.223-57.227-3.651-114.833-3.364-172.218-1.898-41.034 1.047-73.42-10.389-94.107-49.722-88.73 40.822-174.818 80.917-261.433 119.836-15.974 7.178-33.89 12.442-51.241 13.608-38.611 2.596-75.613-23.447-87.151-57.887-12.199-36.408 0.405-69.109 37.012-93.884 52.887-35.793 104.967-72.936 159.322-106.35 93.465-57.458 188.039-113.142 282.92-168.242 44.399-25.784 92.972-33.463 144.218-25.962 77.682 11.374 155.424 22.552 233.372 31.847 58.447 6.971 117.101 8.085 175.866-2.648v57.753c-23.688 1.642-46.966 3.325-70.239 4.77zM1210.435-63.292h-136.715c-11.059 0-20.024 8.676-20.024 19.381v479.951c0 10.705 8.965 19.381 20.024 19.381h136.715c11.059 0 20.027-8.676 20.027-19.381v-479.951c0-10.705-8.968-19.381-20.027-19.381z" />
<glyph unicode="&#xe927;" glyph-name="radial-chart" horiz-adv-x="890" d="M168.461 688.488c0 0 67.576 75.283 192.526 78.985l-0.638-128.968c0 0-73.951-9.873-95.626-39.493l-96.263 89.475zM300.823 566.649c0 0 22.125 27.385 72.197 32.364l-3.493-108.296-68.704 75.932zM385.053 958.808c0 0 186.747 1.271 324.888-139.819l-33.256-39.404c0 0-108.722 120.753-291.632 119.482v59.741zM385.053 875.627c0 0 156.087 8.951 264.724-115.090l-257.232-269.821-7.492 384.91zM752.715 815.605c0 0 136.49-124.443 137.72-348.954h-52.875c0 0 6.148 192.438-115.586 318.164l30.741 30.79zM409.119 466.651l278.026 288.79c0 0 122.732-119.804 118.975-288.79h-397.001zM409.119 430.552h324.092c0 0 14.958-140.384-84.762-240.658l-239.329 240.658zM673.843 162.518c0 0 94.44 78.907 95.699 268.034h120.883c0 0 3.778-195.389-138.512-336.921l-78.070 68.887zM385.053 418.519v-180.174c0 0 64.978-7.722 120.329 52.765l-120.329 127.409zM391.346 201.637c0 0 60.416 0 143.489 59.271l151.041-156.375c0 0-110.763-134.937-300.823-131.153l6.293 228.257zM373.020 418.519l-264.724-273.759c0 0 75.635-92.106 257.16-111.294l7.564 385.053zM336.921 430.552h-216.592c0 0 2.533-78.214 56.998-156.428l159.594 156.428zM83.18 430.552c0 0 2.483-112.808 73.248-180.494l-50.901-60.165c0 0-96.836 63.925-105.527 240.658h83.18zM120.329 466.651h216.592l-146.446 156.428c0 0-66.454-48.037-70.146-156.428zM116.318 683.243c0 0-75.358-105.202-80.219-216.592h43.756c0 0 20.663 125.005 76.573 185.65l-40.11 30.942z" />
<glyph unicode="&#xe928;" glyph-name="tree-chart" horiz-adv-x="1075" d="M652.701 643.048l-5.137 26.746c0.861 0.161 1.721 0.314 2.578 0.463l-0.632 11.752c18.104 0.943 34.427 6.55 48.516 16.667 24.12 17.317 36.307 38.71 37.254 65.403 1.662 46.783 22.365 82.504 61.534 106.169 16.571 10.012 35.364 15.539 55.861 16.423 5.979 0.259 11.844 0.193 17.519 0.128 2.45-0.029 4.887-0.056 7.305-0.056l13.806-12.905 0.622-11.797-15.333-14.232c-26.785 2.93-47.611-1.549-65.544-14.093-23.442-16.393-35.527-37.804-35.921-63.638-1.073-70.323-52.057-109.575-95.391-121.822-6.546-1.848-12.998-2.887-19.239-3.89-2.712-0.437-5.276-0.848-7.797-1.319zM268.8 460.19c0-74.059-60.173-134.095-134.4-134.095s-134.4 60.036-134.4 134.095c0 74.059 60.173 134.095 134.4 134.095s134.4-60.036 134.4-134.095zM684.218 246.857c0-57.228-46.498-103.619-103.855-103.619s-103.855 46.391-103.855 103.619c0 57.228 46.498 103.619 103.855 103.619s103.855-46.391 103.855-103.619zM1075.2 441.905c0-57.228-46.498-103.619-103.855-103.619s-103.855 46.391-103.855 103.619c0 57.228 46.498 103.619 103.855 103.619s103.855-46.391 103.855-103.619zM574.848 584.158c-38.897 0-70.43 31.46-70.43 70.269s31.533 70.27 70.43 70.27c38.897 0 70.43-31.462 70.43-70.27s-31.533-70.269-70.43-70.269zM574.255 752.762c-53.984 0-97.745-43.663-97.745-97.524s43.762-97.524 97.745-97.524c53.982 0 97.745 43.663 97.745 97.524s-43.763 97.524-97.745 97.524zM978.049-37.557c-38.897 0-70.43 31.46-70.43 70.269s31.533 70.27 70.43 70.27c38.897 0 70.43-31.462 70.43-70.27s-31.533-70.269-70.43-70.269zM977.455 131.047c-53.984 0-97.745-43.663-97.745-97.524s43.762-97.524 97.745-97.524c53.982 0 97.745 43.663 97.745 97.524s-43.763 97.524-97.745 97.524zM965.83 791.396c-38.897 0-70.43 31.46-70.43 70.269s31.533 70.27 70.43 70.27c38.897 0 70.43-31.462 70.43-70.27s-31.533-70.269-70.43-70.269zM965.236 960c-53.984 0-97.745-43.663-97.745-97.524s43.762-97.524 97.745-97.524c53.982 0 97.745 43.663 97.745 97.524s-43.763 97.524-97.745 97.524zM478.772 240.762c0 0 22.158 1.238 22.173 12.891l-0.599 12.933-13.853 13.017c-3.413 0-6.739-0.007-10.005-0.014-3.133-0.007-6.211-0.014-9.259-0.014-3.612 0-7.183 0.010-10.755 0.040-23.848 0.196-45.697 8.83-61.519 24.308s-24.588 36.816-24.685 60.090c-0.175 41.406-0.137 83.526-0.101 124.257 0.024 26.954 0.047 53.91 0.014 80.864-0.029 22.877 8.665 44.052 24.484 59.625 16.364 16.112 39.467 24.985 65.050 24.985 6.162 0 12.544-0.505 18.966-1.5l16.023 13.757-0.268 12.451-13.864 13.347-14.75 0.011c-2.864 0-5.698-0.004-8.532-0.016-71.667-0.315-125.933-53.583-126.225-123.909-0.082-19.529-0.061-39.368-0.040-58.553 0.008-7.669 0.017-15.336 0.018-23.005h-84.547l-13.854-13.071-0.496-11.78 13.854-14.2h85.041c-0.021-7.35-0.112-14.8-0.201-22.035-0.245-20.083-0.501-40.851 0.707-61.432 1.19-20.301 5.244-37.719 12.052-51.768 21.638-44.66 61.098-68.86 114.114-69.988 1.762-0.037 3.858-0.049 6.111-0.061 4.784-0.026 14.741-0.080 17.443-0.739zM881.972 21.333c0 0 22.158 1.238 22.173 12.891l-0.599 12.933-13.853 13.017c-3.413 0-6.739-0.007-10.005-0.014-3.133-0.007-6.211-0.014-9.259-0.014-3.612 0-7.183 0.010-10.755 0.040-23.848 0.196-45.697 8.83-61.519 24.308s-24.588 36.816-24.685 60.090c-0.175 41.406-0.137 83.526-0.101 124.257 0.024 26.954 0.047 53.91 0.014 80.864-0.029 22.877 8.665 44.052 24.484 59.625 16.364 16.112 39.467 24.985 65.050 24.985 6.162 0 12.544-0.505 18.966-1.5l16.023 13.757-0.268 12.451-13.864 13.347-14.75 0.011c-2.864 0-5.698-0.004-8.532-0.016-71.667-0.315-125.933-53.583-126.225-123.909-0.082-19.529-0.061-39.368-0.040-58.553 0.008-7.669 0.017-15.336 0.018-23.005h-84.547l-13.854-13.071-0.496-11.78 13.854-14.2h85.041c-0.021-7.35-0.112-14.8-0.201-22.035-0.245-20.083-0.501-40.851 0.707-61.432 1.19-20.301 5.244-37.719 12.052-51.768 21.638-44.66 61.098-68.86 114.114-69.988 1.762-0.037 3.858-0.049 6.111-0.061 4.784-0.026 14.741-0.080 17.443-0.739z" />
<glyph unicode="&#xe929;" glyph-name="import-data" horiz-adv-x="1229" d="M1005.268 360.585c-106.888 0-193.561-89.461-193.561-199.803s86.673-199.807 193.561-199.807c106.895 0 193.561 89.464 193.561 199.807s-86.666 199.803-193.561 199.803zM1005.268-24.751c-99.107 0-179.737 83.23-179.737 185.533s80.63 185.533 179.737 185.533c99.107 0 179.734-83.23 179.734-185.533s-80.627-185.533-179.734-185.533zM1006.411 248.153l-25.21 25.018-119.542-118.632 119.542-118.636 25.21 25.021-76.515 75.926h206.495v35.376h-206.495zM1042.262 665.613c-4.059 2.165-6.871 3.797-9.787 5.201-149.923 72.055-299.869 144.059-449.731 216.25-5.792 2.791-10.335 3.131-16.315 0.248-151.088-72.854-302.278-145.487-453.44-218.188-1.855-0.894-3.534-2.162-5.893-3.627 3.151-1.632 5.352-2.852 7.617-3.94 150.934-72.551 301.878-145.072 452.765-217.722 5.043-2.427 9.004-2.254 14.087 0.194 126.898 61.139 253.9 122.071 380.869 183.061 26.176 12.575 52.308 25.238 79.828 38.523zM574.063 960c6.169-1.965 11.715-3.032 16.654-5.402 178.951-85.935 357.831-172.016 536.779-257.965 13.049-6.265 21.314-15.736 21.382-30.643 0.071-14.89-7.979-24.598-21.046-30.871-154.475-74.139-308.91-148.369-463.348-222.583-24.227-11.643-48.505-23.178-72.601-35.086-11.672-5.769-22.826-5.844-34.582-0.184-172.547 83.086-345.152 166.060-517.743 249.058-6.558 3.155-13.11 6.333-19.695 9.43-12.582 5.908-19.786 15.716-19.863 29.847-0.077 14.529 7.422 24.364 20.246 30.493 34.861 16.664 69.671 33.427 104.492 50.176 143.321 68.931 286.628 137.899 429.999 206.728 6.179 2.971 12.935 4.718 19.325 6.999zM582.608 8.14c-3.601-1.709-9.435-1.642-13.057 0.074-131.433 62.338-262.721 124.97-394.036 187.554-42.505 20.264-85.034 40.48-127.512 60.801-13.198 6.313-25.702 5.644-36.89-3.993-18.649-16.065-13.037-43.324 10.914-54.734 92.856-44.239 185.684-88.536 278.53-132.789 85.263-40.642 170.522-81.298 255.846-121.804 6.229-2.956 12.999-4.766 19.912-7.249 6.963 2.56 13.704 4.455 19.939 7.421 67.672 32.184 135.314 64.429 202.965 96.643-10.53 18.494-18.558 38.588-23.631 59.852-64.32-30.613-128.634-61.227-192.981-91.776zM788.944 110.829c-4.899-2.228-9.801-4.455-14.701-6.686 4.938-19.804 12.758-38.526 23.016-55.753 4.817 2.193 9.634 4.386 14.448 6.579-10.376 17.167-18.136 35.949-22.763 55.86zM994.367 388.255c16.969 0 33.482-1.93 49.39-5.475 27.74 13.261 55.486 26.512 83.222 39.78 19.092 9.135 26.702 27.148 18.823 44.211-8.026 17.377-26.937 23.008-46.395 13.758-11.868-5.644-23.693-11.382-35.551-17.050-160.695-76.823-321.396-153.639-482.087-230.472-4.299-2.055-7.879-3.43-13.151-0.896-114.672 55.093-229.489 109.885-344.279 164.734-59.036 28.209-118.078 56.407-177.103 84.636-12.839 6.141-25.073 5.444-35.977-3.954-18.437-15.894-13.557-43.291 9.716-54.427 178.823-85.566 357.676-171.064 536.572-256.474 5.209-2.484 10.965-3.795 17.050-5.847 5.854 2.068 11.814 3.586 17.272 6.188 66.437 31.663 132.834 63.403 199.244 95.12 37.418 74.809 114.357 126.167 203.254 126.167z" />
<glyph unicode="&#xe92a;" glyph-name="import-picture" horiz-adv-x="1434" d="M199.807 671.98c-0.335 55.795 44.486 100.933 99.991 100.702 54.395-0.231 99.157-44.662 99.805-99.070 0.652-54.943-45.174-100.91-100.412-100.734-54.608 0.172-99.058 44.494-99.384 99.102zM1000.723 498.205c-57.989 77.889-118.096 162.264-168.416 218.674-112.626-131.16-224.343-261.261-337.798-393.381-54.841 52.673-108.486 104.189-163.513 157.032-80.702-78.844-183.673-234.376-266.427-315.22 0 244.416-1.432 488.86-1.432 730.749 328.268 0 708.477-3.027 1038.682-3.027v-379.674c20.076-0.496 39.65-2.996 58.547-7.326v452.161h-1160.368v-859.266h821.715c-15.058 35.757-23.396 75.080-23.396 116.364 0 131.709 84.815 243.407 202.406 282.914zM857.025 47.884h-856.831v-111.884h1007.941c-62.118 20.563-115.044 60.254-151.109 111.884zM1123.902-39.024c144.815 0 262.244 117.419 262.244 262.242 0 144.827-117.429 262.246-262.244 262.246-144.824 0-262.244-117.419-262.244-262.246 0-144.823 117.42-262.242 262.244-262.242zM1123.902 466.731c134.274 0 243.515-109.24 243.515-243.513s-109.241-243.509-243.515-243.509c-134.274 0-243.511 109.236-243.511 243.509s109.237 243.513 243.511 243.513zM1139.883 327.667l-33.231 32.918-157.578-156.095 157.578-156.1 33.231 32.918-100.861 99.908h272.198v46.543h-272.198z" />
<glyph unicode="&#xe92b;" glyph-name="les-miserable-chart" d="M79.365 195.75c-31.392 0-56.84 28.276-56.84 63.157 0 34.879 25.448 63.156 56.84 63.156s56.841-28.277 56.841-63.156c0-34.881-25.449-63.157-56.841-63.157zM78.886 347.286c-43.567 0-78.886-39.243-78.886-87.651s35.319-87.651 78.886-87.651c43.568 0 78.886 39.242 78.886 87.651s-35.318 87.651-78.886 87.651zM660.532 883.504c-15.847 0-28.694 14.274-28.694 31.881 0 17.609 12.847 31.881 28.694 31.881s28.693-14.273 28.693-31.881c0-17.607-12.846-31.881-28.693-31.881zM660.29 960c-21.993 0-39.822-19.81-39.822-44.247s17.829-44.247 39.822-44.247c21.993 0 39.822 19.81 39.822 44.247s-17.829 44.247-39.822 44.247zM521.102 215.388c0-86.344-62.996-156.339-140.705-156.339s-140.705 69.995-140.705 156.339c0 86.344 62.996 156.339 140.705 156.339s140.705-69.995 140.705-156.339zM321.612 699.575c0-74.474-54.336-134.848-121.363-134.848s-121.363 60.374-121.363 134.848c0 74.474 54.336 134.848 121.363 134.848s121.363-60.374 121.363-134.848zM1024 457.692c0-87.973-64.184-159.289-143.36-159.289s-143.36 71.316-143.36 159.289c0 87.973 64.184 159.289 143.36 159.289s143.36-71.316 143.36-159.289zM591.644-2.476c0-33.978-24.791-61.524-55.372-61.524s-55.372 27.546-55.372 61.524c0 33.978 24.791 61.524 55.372 61.524s55.372-27.546 55.372-61.524zM200.249 610.239c0 0 21.997-197.215 162.323-305.093l18.204 44.668c0 0-110.744 70.795-135.775 260.425h-44.753zM635.348 895.519c0 0-209.805-373.224-239.539-642.437l62.888 72.776c0 0 7.149 186.131 206.312 546.967l-29.661 22.694zM491.882 212.075c0 0 219.291 15.218 348.017 193.313l-48.084 27.237c0 0-85.751-141.561-296.874-161.328l-3.060-59.222zM149.428 259.635c0 0 19.721-50.568 152.462-60.681v-26.97c0 0-89.505-9.271-161.564 55.625l9.102 32.026zM468.752 171.739c0 0-17.045-51.755 72.929-160.665l-16.717-19.554c0 0-70.641 61.77-82.663 163.964l26.45 16.255z" />
<glyph unicode="&#xe92d;" glyph-name="brain-machine" horiz-adv-x="1229" d="M511.474 804.675c-0.467 19.649-16.526 34.206-36.773 33.341-17.788-0.762-31.074-15.142-31.135-33.701-0.065-20.326 15.324-35.319 35.23-34.314 19.625 0.991 33.136 15.324 32.677 34.674zM1065.757 472.103c-0.566 18.344-16.47 33.739-34.608 33.5-20.013-0.262-35.52-16.474-34.356-35.908 1.099-18.213 16.788-32.182 35.889-31.948 18.873 0.234 33.65 15.586 33.075 34.356zM227.166 574.689c-18.924-0.126-33.743-15.278-33.337-34.085 0.393-18.41 16.11-33.87 34.323-33.762 19.27 0.108 34.145 14.502 34.435 33.318 0.304 19.541-15.207 34.664-35.422 34.529zM898.98 291.816c-0.061 19.7-15.829 34.748-35.945 34.295-18.802-0.421-33.061-15.853-32.378-35.043 0.654-18.466 16.872-34.23 34.655-33.683 18.751 0.57 33.72 15.885 33.669 34.431zM511.474 513.415c-0.098 19.625-14.31 34.164-33.397 34.159-20.364 0-35.165-15.32-34.482-35.688 0.645-19.289 15.652-33.57 34.641-32.977 19.48 0.608 33.332 14.988 33.238 34.505zM788.807 748.787c-0.36 18.428-16.329 34.505-34.131 34.365-19.564-0.154-35.118-16.591-34.23-36.17 0.851-18.672 16.030-32.715 35.249-32.607 18.858 0.108 33.486 15.31 33.112 34.412zM1093.46 687.134c-21.219 42.046-51.022 66.963-93.947 73.905-15.759 2.548-23.482 10.486-30.443 24.384-9.546 19.041-22.986 36.128-34.753 54.056-1.94-1.3-3.88-2.599-5.82-3.899v-148.446h164.963zM248.989 671.529c0-10.589 0.402-19.036-0.079-27.428-1.010-17.531 0.098-30.705 20.626-40.218 27.044-12.538 39.475-47.469 33.664-75.92-7.148-34.992-35.571-60.306-69.516-61.91-36.796-1.739-68.445 20.181-78.019 54.056-9.771 34.571 4.885 68.052 37.282 87.374 5.783 3.445 13.034 9.742 13.711 15.427 1.879 15.773 0.654 31.92 0.654 47.455-60.657 5.643-74.219 3.974-95.573-11.042-74.162-52.13-92.455-155.15-40.368-227.298 53.948-74.728 147.423-87.018 223.717-28.779 14.969 11.425 26.273 11.594 40.667-1.58 45.912-42.004 89.758-46.328 141.27-12.646 26.184 17.115 53.153 20.742 82.32 14.469 20.752-4.465 41.167-10.5 61.872-15.871v227.63h-121.075c-5.353-17.821-1.772-28.236 14.838-37.058 12.187-6.47 23.164-18.933 29.873-31.326 19.457-35.945 4.334-80.862-31.56-100.216-37.231-20.079-81.89-6.526-102.137 30.999-19.677 36.469-7.279 80.006 28.25 101.454 6.666 4.025 16.357 10.308 16.788 16.133 1.856 25.156 0.795 50.531 0.795 76.294h-208zM497.931 658.201c46.889 0 90.45 0.084 134.006-0.033 27.591-0.070 32.523-4.983 32.621-32.757 0.15-43.514 0.037-87.028 0.037-131.346h219.528v79.543c-4.881 0.482-8.588 1.159-12.295 1.169-36.604 0.098-73.209 0.402-109.804-0.019-19.677-0.229-28.652 8.518-28.091 28.218 0.51 17.9-0.542 35.852 0.309 53.724 0.58 12.211-2.847 18.844-14.782 24.763-32.116 15.932-47.385 51.4-38.844 84.209 9.013 34.613 37.82 57.431 72.914 57.754 35.361 0.327 65.537-22.566 74.12-56.23 8.611-33.767-6.152-66.337-37.656-85.279-5.858-3.525-13.314-9.747-14.015-15.465-1.931-15.75-0.664-31.887-0.664-48.198h110.126v199.491c0 49.862-7.919 56.295-57.908 46.95-3.815-0.715-7.812-1.173-11.327-2.674-19.148-8.195-32.486-3.258-46.473 13.085-43.701 51.073-116.592 58.801-170.072 17.956-18.765-14.329-31.668-14.875-50.849-0.355-64.238 48.619-156.417 27.142-189.684-46.15-17.451-38.451-23.524-35.59-58.226-32.14-52.106 5.18-122.239-42.981-125.75-99.164h279.633c1.402 1.72 2.805 3.431 4.207 5.152-5.858 5.736-10.888 12.837-17.718 16.975-31.761 19.242-46.609 54.131-36.413 87.93 10.247 33.986 39.919 55.257 75.579 54.173 33.902-1.033 62.475-24.193 70.862-57.436 8.204-32.533-6.811-66.285-36.048-84.134-6.952-4.24-15.726-11.743-16.54-18.592-2.263-19.069-0.785-38.587-0.785-61.119zM886.096 366.965c1.903-1.337 3.057-2.403 4.413-3.067 38.979-19.195 56.945-51.438 48.96-87.963-7.19-32.874-36.357-58.488-68.824-60.437-34.038-2.043-68.076 21.972-78.155 55.145-10.79 35.501 3.389 66.173 40.676 89.646 4.577 2.884 10.201 8.602 10.383 13.207 1.014 25.329 0.486 50.723 0.486 76.818h-179.427c0-23.795 0.846-46.253-0.309-68.613-0.715-13.931 4.034-22.36 15.147-30.915 46.646-35.917 70.895-82.283 68.506-143.042-2.693-68.436-1.758-137.016-2.272-205.536-0.061-8.218 0.697-16.446 1.071-24.679h102.45c14.819 52.985 27.086 104.203 43.715 153.967 13.141 39.335 42.425 60.325 85.574 64.682 62.204 6.283 91.53 36.132 100.87 96.896 1.646 10.691 2.408 21.878 1.206 32.57-1.963 17.521 4.254 28.349 18.933 38.68 58.67 41.298 76.841 121.575 36.459 179.717-20.658 29.746-38.97 56.374-30.443 93.895 0.257 1.141-1.276 2.688-2.034 4.17h-174.92v-147.511c18.905-6.512 29.643-2.188 37.918 15.904 5.049 11.037 16.652 20.841 27.647 27.068 37.75 21.374 83.652 6.76 103.871-31.42 18.999-35.87 5.544-81.091-30.060-101.043-35.898-20.125-81.362-6.844-103.17 29.742-3.646 6.115-8.737 15.502-13.786 15.927-21.275 1.79-42.789 0.757-64.887 0.757v-84.564zM706.225 99.72c0 41.275 2.048 82.689-0.856 123.758-1.468 20.752-6.998 44.594-19.167 60.587-38.605 50.746-91.735 78.374-156.174 80.628-9.934 0.346-21.607-4.465-29.952-10.42-57.674-41.172-114.979-36.23-171.844 0.444-10.509 6.779-17.035 8.041-28.479 1.164-99.743-59.927-217.322-29.237-273.49 70.511-56.099 99.627-19.359 225.928 81.941 278.834 13.955 7.288 22.542 15.24 27.414 30.976 22.608 73.026 81.586 116.91 160.311 119.64 14.703 0.505 22.958 3.782 30.831 17.423 48.764 84.457 148.755 110.112 234.492 62.442 6.872-3.824 19.34-3.487 26.572 0.154 77.337 38.928 141.023 31.074 206.686-25.759 5.236-4.53 15.245-6.708 22.271-5.507 79.347 13.52 144.879-17.727 184.504-87.748 4.366-7.714 13.094-15.109 21.43-18.092 82.727-29.62 126.919-94.292 124.721-182.18-0.238-9.537 4.151-21.079 10.219-28.601 61.138-75.738 52.172-183.77-20.425-248.419-7.419-6.61-11.477-18.494-14.081-28.699-4.969-19.504-5.975-40.106-11.795-59.287-19.19-63.195-66.753-91.483-128.831-97.621-23.692-2.337-38.937-11.112-49.016-32.392-22.341-47.179-32.032-97.21-35.814-148.736-2.52-34.37-4.764-36.618-39.162-36.656-42.046-0.042-84.106 0.411-126.147-0.159-20.018-0.271-28.124 8.812-27.975 28.222 0.365 45.164 0.117 90.328 0.117 135.492h1.697z" />
<glyph unicode="&#xe92e;" glyph-name="deepchat-logo" d="M507.673 71.457c-210.314 0-380.751 168.833-380.751 377.115s170.437 377.115 380.751 377.115c210.274 0 380.721-168.833 380.721-377.115s-170.447-377.115-380.721-377.115zM507.673 951.394c-280.399 0-507.678-225.114-507.678-502.823 0-277.699 227.279-502.823 507.678-502.823 280.359 0 507.638 225.124 507.638 502.823 0 277.709-227.279 502.823-507.638 502.823zM670.769 618.667c43.333 0 78.818-28.272 78.818-62.854 0-34.562-35.486-62.844-78.818-62.844h-326.065c-43.372 0-78.858 28.282-78.858 62.844 0 34.582 35.486 62.854 78.858 62.854h326.065zM886.154 872.151c0 42.969 28.534 78.097 63.449 78.097 34.885 0 63.439-35.128 63.439-78.097v-424.726c0-42.94-28.554-78.087-63.439-78.087-34.914 0-63.449 35.148-63.449 78.087v424.726z" />
<glyph unicode="&#xe92f;" glyph-name="cloud-computing" horiz-adv-x="1126" d="M798.084 791.66c117.438 28.072 215.472 0.044 282.946-100.2 59.476-88.364 58.313-182.128-0.59-270.48-56.788-85.18-141.654-116.84-245.779-107.572 0 25.944-0.789 51.12 0.618 76.172 0.313 5.456 7.775 11.396 13.179 15.56 45.89 35.372 59.728 93.968 33.873 145.192-23.846 47.236-80.523 72.316-133.83 58.524-28.64-7.408-50.806-24.316-67.47-48.26-3.363-4.836-6.498-9.824-10.772-16.312-23.593 43.376-58.451 67.568-107.48 68.14-49.968 0.584-83.65-25.728-108.509-68.364-16.741 29.464-38.481 51.82-70.764 62.204-55.246 17.768-112.461-4.652-140.084-55.044-26.786-48.872-13.594-111.58 32.096-145.22 10.626-7.824 14.566-15.34 14.009-27.84-0.935-21.16-0.252-42.388-0.252-64.856-101.579-8.304-185.653 21.848-242.591 104.884-60.122 87.684-62.745 181.868-4.554 270.64 66.51 101.464 164.841 131.58 283.483 102.5 44.039 103.528 120.382 165.476 237.004 165.092 115.747-0.376 191.37-62.58 235.466-164.76zM733.054 497.025c-0.163-23.188 17.49-42.232 39.42-42.52 23.874-0.312 42.868 17.648 43.364 41.012 0.512 24.228-16.957 42.996-40.538 43.556-23.17 0.548-42.079-18.272-42.246-42.048zM959.245 131.533c24.146-0.348 42.754 17.564 42.71 41.108-0.045 23.464-18.986 42.58-42.108 42.484-22.329-0.088-41.258-18.508-41.856-40.728-0.642-23.452 17.717-42.524 41.254-42.864zM755.696 293.121c-0.012 34.652-0.63 69.316 0.272 103.944 0.403 15.488-3.131 24.548-19.072 32.112-33.011 15.66-47.829 52.912-39.054 88.244 8.007 32.22 40.412 57.924 73.838 58.564 35.915 0.684 67.515-21.792 78.234-55.648 11.776-37.18-5.124-77.516-41.229-94.172-11.52-5.312-15.961-10.948-15.835-23.568 0.638-64.628 0.724-129.272-0.024-193.9-0.171-14.916 4.306-20.836 19.547-19.092 8.019 0.916 16.274 0.652 24.358 0.064 26.013-1.896 46.459-0.988 61.228 28.792 15.839 31.936 59.203 39.936 93.080 25.972 33.625-13.864 53.689-50.7 47.114-86.492-6.482-35.328-37.078-62.7-72.691-65.040-31.873-2.096-63.355 16.548-77.689 48.048-4.656 10.22-9.934 13.764-20.999 13.496-28.432-0.696-56.906 0.248-85.346-0.38-18.234-0.404-25.932 7.612-25.801 25.116 0.277 37.976 0.081 75.96 0.069 113.94zM387.399 497.708c-0.464 23.668-19.226 41.968-42.413 41.364-23.378-0.608-40.864-19.288-40.42-43.172 0.443-23.688 17.518-41.4 39.831-41.324 24.439 0.084 43.47 19.176 43.002 43.132zM160.171 131.544c23.65-0.104 42.771 18.784 42.295 41.772-0.48 23.364-19.917 42.284-42.897 41.76-22.434-0.512-40.961-19.124-41.12-41.316-0.171-23.968 17.762-42.112 41.722-42.216zM326.15 189.78c0.476 8.688 1.069 14.572 1.074 20.456 0.069 63.96-0.216 127.916 0.277 191.872 0.089 11.944-2.765 18.868-14.712 24.604-36.48 17.524-53.213 54.768-43.246 91.704 8.694 32.256 41.534 57.588 74.651 57.584 36.915-0.004 70.691-26 78.722-60.6 8.747-37.648-8.8-74.276-45.633-90.56-11.305-4.996-12.695-11.388-12.667-21.396 0.22-72.62 0.179-145.236 0.077-217.852-0.037-27.748-3.664-31.252-31.405-31.34-26.411-0.084-52.835-0.432-79.234 0.172-10.743 0.248-16.554-2.528-21.182-13.124-16.347-37.448-52.88-54.52-93.036-45.14-35.654 8.332-60.386 42.668-58.394 81.068 1.944 37.54 31.564 68.372 70.622 73.52 31.238 4.116 65.909-15.108 80.17-46.896 5.046-11.256 10.951-14.632 22.548-14.28 22.91 0.7 45.861 0.208 71.37 0.208zM600.479 496.364c0.089 24.18-17.982 42.796-41.482 42.728-23.317-0.068-41.486-19.004-41.278-43.004 0.203-23.488 17.872-41.732 40.193-41.508 24.199 0.248 42.474 18.184 42.567 41.784zM600.499 18.536c-0.248 23.82-18.86 41.872-42.551 41.268-23.057-0.584-40.278-18.236-40.282-41.284 0-24.316 17.583-42.292 41.388-42.316 23.695-0.024 41.693 18.364 41.445 42.332zM540.365 258.156c0 47.984-0.333 95.968 0.228 143.948 0.146 11.94-2.7 18.864-14.672 24.612-36.512 17.524-53.209 54.732-43.242 91.74 8.702 32.312 41.445 57.532 74.704 57.544 37.212 0.016 70.74-25.752 78.71-60.488 8.694-37.888-9.316-73.1-45.137-91.568-5.998-3.092-12.533-12.096-12.586-18.42-0.789-98.628-0.329-197.26-0.842-295.892-0.061-12.172 5.010-16.796 15.452-21.624 34.243-15.82 50.936-51.316 43.198-88.316-6.665-31.908-36.63-57.6-70.113-60.128-36.679-2.772-69.837 18.772-81.711 53.084-12.972 37.5 3.961 78.588 41.437 95.464 12.281 5.532 14.944 12.184 14.802 24.096-0.557 48.644-0.228 97.296-0.228 145.948zM398.597 315.196c0 25.848-0.325 49.74 0.281 73.608 0.118 4.596 2.871 10.044 6.161 13.488 15.481 16.232 31.564 31.9 45.377 45.708 13.301-13.472 29.030-29.088 44.304-45.124 3.339-3.508 7.067-8.452 7.189-12.828 0.695-24.456 0.333-48.944 0.333-74.852h-103.645zM720.865 314.78h-102.673c0 25.964-0.37 51.048 0.354 76.1 0.122 4.324 4.225 9.12 7.604 12.664 15.058 15.8 30.523 31.228 43.543 44.456 13.712-13.644 30.161-29.776 46.231-46.264 2.525-2.592 4.672-6.784 4.725-10.268 0.399-25.124 0.216-50.26 0.216-76.688z" />
<glyph unicode="&#xe930;" glyph-name="cloud-computing-o" horiz-adv-x="1075" d="M247.327 304.652c-71.474 0-131.013 25.382-176.974 75.443-66.029 71.926-86.093 158.95-58.019 251.67 28.746 94.946 94.253 154.080 189.435 171 8.229 1.465 17.027 2.175 26.892 2.175 14.147 0 28.577-1.484 42.532-2.921 9.615-0.988 19.561-2.008 29.153-2.508 3.464-0.179 6.655-0.933 9.727-1.766 43.857 105.71 118.33 160.276 221.449 162.205 1.885 0.032 3.782 0.052 5.645 0.052 104.74 0 180.461-54.304 225.135-161.419 4.8 0.714 9.565 1.476 14.3 2.235 14.185 2.27 28.858 4.616 43.442 5.438 4.343 0.246 8.751 0.369 13.091 0.369 110.538 0 206.419-79.039 233.161-192.21 27.118-114.759-28.14-234.706-131.389-285.212-33.508-16.388-69.823-24.385-111.022-24.453h-0.507c-10.364 0-21.070 0.627-28.147 8.097-4.381 4.624-6.52 11.077-6.359 19.186 0.338 16.694 10.207 25.159 29.322 25.159 1.82 0 3.656-0.060 5.484-0.143 2.83-0.127 5.645-0.187 8.433-0.187 92.986 0 157.847 67.592 178.756 130.389 26.327 79.058 11.612 149.115-43.738 208.229-37.083 39.603-80.951 59.686-130.376 59.686-21.673 0-44.686-3.886-68.394-11.55-10.103-3.266-17.748-5.58-24.115-5.58-15.844 0-20.444 14.086-25.766 30.391-27.809 85.163-99.218 140.189-181.92 140.189l-2.573-0.016c-82.856-1.135-153.443-57.495-179.823-143.586-4.17-13.618-9.554-26.914-25.229-26.914-5.038-0.004-11.052 1.349-20.102 4.525-22.307 7.815-45.074 11.78-67.668 11.78-64.42 0-121.605-31.7-156.902-86.969-50.262-78.709-42.996-177.811 18.083-246.597 36.338-40.924 81.22-62.333 133.386-63.623l3.997-0.119c2.753-0.087 5.514-0.175 8.268-0.175 2.077 0 4.151 0.052 6.221 0.194 1.179 0.087 2.339 0.127 3.475 0.127 16.881 0 27.318-9.403 27.921-25.155 0.288-7.462-1.732-13.645-6.010-18.372-5.092-5.632-12.952-8.637-23.366-8.93-2.976-0.087-5.952-0.131-8.905-0.131zM739.026 530.452c-8.252-0.028-15.994-3.39-21.788-9.47-6.244-6.549-9.623-15.487-9.512-25.167 0.204-18.404 13.667-33.379 30.010-33.379 18.789 0.222 32.748 14.709 32.801 33.697 0.027 9.764-3.36 18.674-9.539 25.080-5.748 5.957-13.517 9.24-21.869 9.24v7.938l-0.104-7.938zM914.31 208.999c-8.287 0-16.527-3.691-22.618-10.137-6.144-6.497-9.55-15.209-9.358-23.905 0.43-18.809 14.258-32.994 32.175-32.994l0.672 0.008c17.664 0.341 31.027 14.372 31.085 32.637 0.031 9.387-3.425 18.166-9.731 24.719-5.983 6.219-13.855 9.657-22.161 9.672l-0.065 7.938v-7.938zM915.712 88.028c-31.964 0-61.551 19.42-75.379 49.485-4.485 9.74-7.745 11.383-15.272 11.383-0.522 0-1.060-0.012-1.617-0.032-9.853-0.381-20.344-0.56-33.016-0.56-9.085 0-18.175 0.091-27.256 0.183-4.969 0.048-9.934 0.099-14.899 0.131-27.014 0.191-34.429 7.906-34.491 35.884l-0.023 9.188c-0.154 67.87-0.319 138.053 0.223 207.098 0.088 11.296-2.262 15.424-11.432 20.067-35.697 18.091-53.357 58.932-42.947 99.32 9.082 35.197 43.296 62.77 77.894 62.77 39.256-0.143 73.609-28.061 81.915-66.381 8.594-39.638-9.523-79.273-45.082-98.625-4.531-2.473-9.089-8.307-9.27-10.431-0.78-57.935-0.649-116.927-0.518-173.973l0.061-30.16c0-0.885 0.227-2.080 0.545-3.552 4.262-0.012 8.521-0.040 12.776-0.064 6.252-0.036 12.492-0.075 18.72-0.075 14.508 0 25.651 0.214 35.996 0.691 1.329 0.921 4.078 4.275 5.821 8.025 14.63 31.577 43.3 51.978 73.033 51.978 1.294 0 2.588-0.040 3.886-0.115 36.645-2.207 62.653-20.762 75.222-53.657 13.221-34.618 6.693-67.243-18.874-94.347-14.734-15.622-34.625-24.227-56.010-24.231h-0.008zM334.030 531.059c-16.75 0-30.394-14.050-31.058-31.982-0.388-10.546 2.715-20.024 8.744-26.691 5.249-5.795 12.219-8.986 20.172-9.224l0.995-0.016c17.66 0 32.091 14.022 32.847 31.923 0.829 19.595-11.651 34.701-29.679 35.923-0.676 0.044-1.352 0.067-2.020 0.067zM159.026 209.61c-8.237 0-16.124-3.481-22.218-9.803-6.221-6.45-9.635-14.864-9.604-23.691 0.065-19.456 13.505-33.578 31.96-33.578 17.556 0.064 31.546 14.193 31.968 32.169 0.215 9.164-3.076 17.896-9.258 24.592-5.967 6.458-13.851 10.117-22.199 10.304l-0.649 0.008zM159.993 89.132c-6.678 0-13.601 0.798-20.586 2.369-36.906 8.327-63.229 44.151-62.596 85.186 0.653 42.163 28.051 74.808 69.804 83.162 4.101 0.822 8.371 1.238 12.687 1.238 30.927 0 61.394-20.651 74.093-50.224 3.944-9.184 7.357-10.819 14.991-10.819 0.657 0 1.329 0.016 2.024 0.044 7.688 0.325 16.028 0.476 26.262 0.476 6.205 0 12.507-0.052 18.985-0.107 4.37-0.036 8.82-0.071 13.367-0.095v36.713c0 14.598-0.031 29.196-0.058 43.794-0.081 38.321-0.157 77.943 0.303 116.934 0.157 13.129-1.859 18.861-13.475 24.886-20.314 10.526-35.332 29.811-41.207 52.907-6.060 23.818-1.989 49.077 11.167 69.299 15.959 24.536 39.644 38.051 66.689 38.051 7.012 0 14.243-0.917 21.489-2.723 32.448-8.097 57.189-36.277 61.567-70.124 5.053-39.103-12.127-74.101-43.776-89.155-10.011-4.767-12.426-8.883-12.3-20.988 0.584-55.606 0.476-112.124 0.376-166.785l-0.069-43.516c-0.027-34.344-5.979-40.392-39.805-40.448l-1.997-0.004c-6.344 0-12.68 0.044-19.020 0.087-6.305 0.048-12.611 0.091-18.912 0.091-13.878 0-24.522-0.222-34.518-0.722-2.822-0.139-8.36-4.092-9.711-6.93-16.124-33.919-43.039-52.597-75.775-52.597zM536.054 531.335c-17.679-0.46-31.173-15.975-30.735-35.32 0.426-18.599 13.279-32.625 29.894-32.625l0.899 0.012c18.743 0.572 32.202 14.939 32.006 34.165-0.2 18.944-13.932 33.78-31.265 33.78l-0.799-0.012zM535.932 55.767c-17.718-0.413-30.612-14.257-30.666-32.915-0.050-19.714 13.11-34.082 31.3-34.165h0.004c8.671 0 16.531 3.302 22.295 9.303 6.044 6.291 9.331 15.015 9.266 24.564-0.134 18.94-13.644 33.22-31.423 33.22l-0.776-0.008zM536.772-64.002c-34.852 0-66.989 24.33-78.156 59.158-12.952 40.408 4.865 85.353 40.554 102.317 10.748 5.112 12.449 9.93 12.388 22.782-0.461 99.221-0.449 190.746 0.042 279.798 0.065 11.982-1.624 16.825-11.758 21.893-35.355 17.686-53.242 59.559-42.528 99.57 9.508 35.519 42.924 62.301 77.729 62.301l0.737-0.004c39.118-0.437 73.29-28.569 81.243-66.893 8.548-41.174-9.381-80.031-44.605-96.693-8.686-4.108-10.671-7.482-10.621-18.043 0.468-94.168 0.468-190.305 0.008-285.748-0.054-10.419 1.935-13.776 10.637-17.98 29.146-14.074 45.585-40.464 46.287-74.304-0.035-44.862-27.779-79.761-69.039-87.024-4.251-0.75-8.598-1.131-12.918-1.131z" />
<glyph unicode="&#xe931;" glyph-name="logic" d="M296.945 448.011c-26.784 19.744-51.25 38.225-76.358 55.788-3.682 2.578-10.625 1.818-15.682 0.767-5.777-1.2-11.825-3.536-16.455-7.079-4.343-3.321-9.608-8.692-9.915-13.455-1.163-18.029 0.443-36.239-0.734-54.268-1.193-18.379 0.132-33.774 22.92-36.451 6.339-0.744 14.71-4.518 18.673-1.808 25.719 17.559 50.484 36.527 77.551 56.505zM684.123 448.001c20.848-15.335 40.737-28.102 58.353-43.474 16.112-14.066 30.492-19.473 50.331-7.007 7.102 4.462 10.619 7.354 10.431 15.547-0.403 17.546-1.481 35.244 0.245 52.628 1.96 19.843-1.689 34.279-24.007 37.511-6.23 0.902-14.472 3.444-18.627 0.605-25.316-17.298-49.72-35.932-76.725-55.811zM217.688 585.105c-0.271 30.865-26.618 56.542-57.516 56.046-31.295-0.496-56.512-26.301-56.099-57.391 0.413-30.964 26.555-56.545 57.457-56.221 30.898 0.324 56.429 26.493 56.158 57.566zM877.11 310.656c0.618 30.763-24.916 57.143-55.887 57.735-30.951 0.588-57.166-24.84-57.626-55.9-0.456-31.090 24.705-57.127 55.778-57.718 30.928-0.592 57.11 24.754 57.735 55.884zM217.536 311.958c-0.397 31.358-26.076 56.75-57.087 56.452-31.027-0.297-56.575-26.218-56.426-57.245 0.152-30.921 26.248-56.637 57.232-56.393 31.057 0.245 56.674 26.275 56.28 57.186zM763.574 583.779c0.393-31.126 26.423-56.614 57.381-56.185 31.007 0.43 56.644 26.655 56.181 57.467-0.473 31.080-26.575 56.588-57.493 56.171-31.004-0.416-56.459-26.499-56.069-57.454zM434.029 868.397c0.040-31.136 25.716-56.71 56.799-56.571 30.991 0.139 56.542 26.020 56.353 57.084-0.192 31.206-25.908 56.799-56.862 56.591-31.159-0.212-56.333-25.749-56.29-57.103zM547.155 584.202c0.023 31.308-25.253 56.908-56.356 57.070-31.027 0.162-56.624-25.352-56.799-56.624-0.175-31.116 25.303-56.912 56.35-57.050 30.991-0.139 56.779 25.557 56.806 56.604zM434.065 312.424c-0.317-31.453 24.397-57.080 55.652-57.702 30.875-0.615 57.031 24.87 57.47 55.996 0.443 31.136-24.761 57.209-55.755 57.678-31.040 0.473-57.050-24.906-57.368-55.973zM433.986 26.865c0.281-31.232 26.076-56.717 57.060-56.37 31.173 0.347 56.234 25.964 56.089 57.325-0.142 31.040-26.037 56.627-57.034 56.35-30.997-0.274-56.396-26.212-56.115-57.305zM626.603 448.011c-26.75 19.764-50.804 38.067-75.588 55.322-4.049 2.819-12.351 3.193-16.918 1.005-29.335-14.040-58.075-14.258-87.198 0.314-3.748 1.874-10.249 3.318-12.959 1.401-26.278-18.574-52.020-37.908-79.386-58.111 29.312-21.575 56.624-41.679 83.722-61.621 32.835 19.559 65.068 21.585 98.128 3.754 3.031-1.633 8.904-1.656 11.554 0.235 25.828 18.452 51.254 37.472 78.645 57.702zM473.513 220.771c-69.603 27.765-88.444 72.128-60.174 141.436-27.107 19.992-54.377 40.341-82.046 60.127-2.551 1.821-8.761 1.643-11.389-0.238-27.63-19.767-54.879-40.066-82.74-60.593 19.675-33.942 18.528-67.005 0.271-100.038 5.341-4.468 9.846-8.414 14.535-12.123 53.927-42.651 107.855-85.301 161.845-127.873 24.526-19.341 24.662-19.427 52.41-6.488 3.163 1.474 6.921 5.989 6.973 9.148 0.509 32.392 0.314 64.794 0.314 96.641zM567.044 361.702c29.692-60.412 9.763-113.39-49.667-137.394-4.366-1.765-9.148-8.838-9.317-13.597-0.912-25.838 1.424-51.901-1.008-77.541-2.056-21.651 15.989-17.953 25.386-25.422 8.791-6.99 14.674-2.376 21.436 3.008 32.28 25.703 64.741 51.171 97.103 76.765 30.935 24.47 61.826 48.993 93.118 73.797-19.476 34.025-18.924 67.098-0.344 100.395-27.851 20.534-54.671 40.598-81.953 60.002-2.905 2.066-9.816 2.076-12.714 0.013-27.316-19.41-54.162-39.481-82.039-60.025zM507.644 675.268c70.125-21.747 89.647-85.252 59.79-141.235 27.213-20.065 54.496-40.403 82.165-60.2 2.604-1.864 8.808-1.95 11.379-0.116 27.673 19.757 54.945 40.063 81.996 59.972-18.187 47.542-18.174 53.805-0.010 101.526-4.323 3.606-8.831 7.542-13.521 11.25-53.934 42.657-107.871 85.315-161.868 127.899-24.516 19.331-24.675 19.473-52.374 6.66-3.417-1.583-7.168-6.924-7.231-10.586-0.565-31.853-0.327-63.72-0.327-95.17zM237.036 634.812c19.261-34.041 19.096-67.111 0.33-100.478 27.835-20.531 54.681-40.545 81.881-60.061 2.766-1.983 8.993-2.776 11.415-1.044 28.122 20.074 55.818 40.74 83.375 61.059-29.907 61.363-10.711 111.209 51.194 137.887 3.91 1.686 7.833 8.461 7.952 12.969 0.734 27.501 0.823 55.048-0.063 82.542-0.155 4.796-5.096 10.556-9.393 13.808-5.090 3.854-11.68 6.306-17.989 7.773-4.465 1.034-10.953 1.226-14.149-1.269-64.576-50.414-128.802-101.271-194.554-153.186zM414.172 77.956c-65.524 51.723-130.229 102.947-195.301 153.691-3.050 2.376-10.222 2.208-14.109 0.354-51.131-24.368-106.427-5.486-127.43 43.979-21.043 49.561 3.483 102.335 56.403 122.677 4.174 1.603 9.214 7.72 9.363 11.898 0.882 24.748 0.962 49.565-0.043 74.302-0.185 4.488-5.807 10.976-10.374 12.718-42.634 16.251-66.549 53.541-61.915 98.105 4.161 40.036 36.669 74.332 79.313 78.106 17.606 1.557 35.994-6.471 54.126-9.571 5.080-0.866 12.136-1.824 15.52 0.813 64.678 50.378 128.944 101.291 194.409 152.967-14.281 26.245-20.848 54.525-8.077 81.861 7.79 16.677 20.593 33.053 35.277 44.059 32.055 24.040 76.18 20.21 107.141-5.347 34.58-28.538 41.173-68.866 19.050-120.807 41.081-32.534 82.419-65.31 123.798-98.026 22.884-18.091 45.586-36.431 69.021-53.782 3.91-2.895 12.228-3.569 16.67-1.438 49.654 23.859 105.234 4.964 126.538-43.692 21.505-49.115-2.958-104.027-55.57-122.625-8.818-3.117-10.606-7.139-10.47-15.246 0.377-23.122 0.506-46.263-0.056-69.375-0.221-9.085 2.376-12.985 11.581-16.142 42.485-14.552 66.43-53.726 61.314-97.986-4.696-40.582-38.794-74.973-81.722-77.783-16.71-1.094-33.939 6.527-51.016 9.707-5.106 0.949-12.278 2.555-15.527 0.030-62.13-48.306-123.824-97.179-185.581-145.964-2.988-2.36-5.77-4.981-9.479-8.2 13.59-23.964 20.481-50.067 9.627-75.624-7.43-17.483-19.027-35.307-33.483-47.268-32.118-26.575-79.005-23.353-111.133 3.642-34.312 28.829-41.071 71.688-17.863 119.964z" />
<glyph unicode="&#xe932;" glyph-name="checkbox-select-o" d="M107.789 960h808.421c59.5 0 107.789-48.29 107.789-107.789v-808.421c0-59.554-48.29-107.789-107.789-107.789h-808.421c-59.5 0-107.789 48.236-107.789 107.789v808.421c0 59.5 48.29 107.789 107.789 107.789zM148.211 908.8c-53.55 0-97.011-43.461-97.011-97.011v-727.579c0-53.598 43.461-97.011 97.011-97.011h727.579c53.55 0 97.011 43.412 97.011 97.011v727.579c0 53.55-43.461 97.011-97.011 97.011h-727.579zM870.4 602.749c-144.082-136.647-288.92-274.015-433.094-410.749-77.152 73.156-155.226 147.187-232.506 220.465 22.117 20.952 28.134 26.169 50.88 47.717 53.427-50.699 126.585-118.586 181.627-167.376 123.252 116.901 259.949 244.862 381.334 359.994 23.343-22.484 29.602-28.707 51.76-50.051z" />
<glyph unicode="&#xe933;" glyph-name="checkbox-select" d="M107.789 960h808.421c59.5 0 107.789-48.29 107.789-107.789v-808.421c0-59.554-48.29-107.789-107.789-107.789h-808.421c-59.5 0-107.789 48.236-107.789 107.789v808.421c0 59.5 48.29 107.789 107.789 107.789zM870.4 602.749c-22.158 21.344-28.418 27.567-51.76 50.051-121.384-115.132-258.082-243.093-381.334-359.994-55.041 48.79-128.2 116.677-181.627 167.376-22.746-21.549-28.763-26.765-50.88-47.717 77.281-73.278 155.354-147.309 232.506-220.465 144.174 136.734 289.011 274.102 433.094 410.749z" />
<glyph unicode="&#xe934;" glyph-name="checkbox-o" d="M107.789 960h808.421c59.5 0 107.789-48.29 107.789-107.789v-808.421c0-59.554-48.29-107.789-107.789-107.789h-808.421c-59.5 0-107.789 48.236-107.789 107.789v808.421c0 59.5 48.29 107.789 107.789 107.789zM148.211 908.8c-53.55 0-97.011-43.461-97.011-97.011v-727.579c0-53.598 43.461-97.011 97.011-97.011h727.579c53.55 0 97.011 43.412 97.011 97.011v727.579c0 53.55-43.461 97.011-97.011 97.011h-727.579z" />
</font>
</defs>
</svg>
